<?xml version="1.0" encoding="UTF-8"?> <!-- Generator: Adobe Illustrator 22.0.1, SVG Export Plug-In . SVG Version: 6.00 Build 0) --> <svg xmlns="http://www.w3.org/2000/svg" xmlns:xlink="http://www.w3.org/1999/xlink" x="0px" y="0px" viewBox="0 0 216.99 168.112" xml:space="preserve"> <g id="Layer_2"> </g> <g id="Layer_1"> <g> <path fill="#1D1D1B" d="M2.287,61.948c0.886,1.145,2.209,1.655,3.884,1.523c0.302,0,0.642-0.057,1.04-0.174 c0.38-0.112,0.741-0.258,1.068-0.434c0.319-0.169,0.604-0.344,0.847-0.522c0.392-0.286,0.59-0.621,0.59-0.994 c0-0.171-0.068-0.336-0.19-0.456l-0.119-0.118c-0.138-0.137-0.33-0.204-0.525-0.184l-0.462,0.054 c-0.113,0-0.228-0.012-0.342-0.039c-0.028-0.015-0.056-0.028-0.087-0.039c-0.609-0.224-1.03-0.556-1.29-1.017 c-0.287-0.505-0.468-1.213-0.541-2.115c-0.074-0.739-0.045-1.677,0.088-2.79c0.134-1.127,0.368-2.334,0.694-3.583 c0.327-1.251,0.747-2.52,1.248-3.774c0.496-1.239,1.074-2.367,1.718-3.35c0.628-0.961,1.327-1.745,2.078-2.331 c0.698-0.546,1.429-0.811,2.237-0.811c0.413,0,0.752,0.103,1.034,0.314c0.322,0.242,0.583,0.552,0.797,0.946 c0.227,0.418,0.406,0.903,0.531,1.438c0.13,0.557,0.214,1.12,0.253,1.691c0.074,0.777,0.035,1.754-0.116,2.904 c-0.154,1.174-0.38,2.451-0.671,3.796c-0.288,1.326-0.634,2.75-1.029,4.233c-0.396,1.483-0.812,2.919-1.236,4.266 c-0.426,1.356-0.87,2.661-1.321,3.877c-0.444,1.198-0.865,2.216-1.254,3.034c-0.485,1.054-0.883,2.064-1.183,3.004 c-0.323,1.01-0.442,1.946-0.355,2.765c0.047,0.57,0.217,1.103,0.504,1.582c0.268,0.445,0.585,0.84,0.94,1.173 c0.366,0.344,0.746,0.604,1.131,0.773c0.402,0.175,0.733,0.241,1.098,0.257c0.572-0.064,1.088-0.495,1.578-1.318 c0.388-0.655,0.78-1.448,1.163-2.357c0.379-0.897,0.744-1.88,1.086-2.923c0.325-1,0.649-1.903,0.97-2.707l1.48-4.145 c0.974-2.729,2.039-5.613,3.163-8.572c0.769-2.023,1.527-3.944,2.27-5.749c-0.051,0.251-0.103,0.509-0.158,0.771 c-0.277,1.342-0.543,2.624-0.799,3.847c-0.257,1.222-0.483,2.274-0.68,3.161c-0.273,1.23-0.311,1.547-0.311,1.708 c0,0.402,0.178,0.802,0.542,1.222c0.289,0.334,0.636,0.647,1.027,0.929c0.385,0.279,0.788,0.518,1.197,0.712 c0.48,0.227,0.891,0.316,1.251,0.268c0.429-0.025,0.753-0.352,1.659-1.955c0.604-1.073,1.324-2.403,2.14-3.954 c0.809-1.54,1.667-3.177,2.576-4.917c0.622-1.189,1.197-2.275,1.727-3.263c-0.453,1.394-0.969,2.909-1.543,4.527 c-0.865,2.438-1.696,5.019-2.468,7.673c-0.772,2.651-1.404,5.362-1.881,8.061c-0.48,2.722-0.662,5.341-0.542,7.787 c0.081,1.437,0.344,2.757,0.78,3.92c0.437,1.164,0.999,2.18,1.669,3.016c0.683,0.858,1.481,1.523,2.371,1.979 c0.584,0.299,1.2,0.502,1.837,0.605c0.012,0.099,0.027,0.194,0.045,0.288c0.181,0.854,0.518,1.57,1.004,2.127 c0.469,0.535,1.016,0.955,1.627,1.251c0.591,0.284,1.213,0.473,1.85,0.561c0.317,0.043,0.624,0.065,0.915,0.065 c0.29,0,0.564-0.021,0.817-0.063c1.829-0.218,3.399-1.168,4.668-2.824c1.199-1.565,2.217-3.517,3.027-5.802 c0.072-0.204,0.142-0.413,0.21-0.623l0.283-0.014c1.141-0.059,2.233-0.108,3.277-0.147c1.036-0.039,1.866-0.059,2.468-0.059 c2.094,0.077,3.813,0.214,5.11,0.408c1.241,0.184,2.238,0.471,2.963,0.851c0.691,0.362,1.199,0.826,1.553,1.418 c0.376,0.628,0.716,1.423,1.012,2.368c0.054,0.411,0.38,0.699,0.814,0.699c0.435,0,0.754-0.339,0.985-0.637 c0.226-0.295,0.439-0.653,0.633-1.064c0.185-0.391,0.355-0.826,0.506-1.294c0.157-0.497,0.237-0.981,0.237-1.438 c0-1.008-0.282-1.895-0.839-2.636c-0.525-0.701-1.232-1.3-2.101-1.778c-0.842-0.463-1.796-0.813-2.835-1.04 c-1.017-0.225-2.072-0.36-3.144-0.4c-1.671-0.044-3.354,0.03-5,0.211c-1.579,0.173-3.179,0.376-4.758,0.605 c0.23-0.906,0.442-1.834,0.633-2.768c0.529-2.588,0.999-5.106,1.394-7.477c0.355-2.01,0.69-3.842,1.005-5.497 c0.303-1.592,0.66-2.786,1.088-3.604c0.151-0.365,0.375-1.295-0.818-2.037c-1.208-0.752-2.845-0.865-4.093-0.162 c-0.591,0.335-1.017,0.859-1.27,1.57c-0.199,0.595-0.408,1.241-0.626,1.934c-0.216,0.688-0.442,1.385-0.681,2.106 c-0.473,1.537-0.985,3.153-1.537,4.846c-0.543,1.668-1.111,3.137-1.697,4.387c-0.107,0.249-0.253,0.533-0.436,0.843 c-0.183,0.311-0.385,0.605-0.6,0.874c-0.214,0.268-0.43,0.502-0.642,0.696c-0.055,0.051-0.101,0.086-0.135,0.109 c-0.012-0.025-0.025-0.056-0.039-0.093c-0.048-0.13-0.149-0.567-0.051-1.842c0.037-0.639,0.183-1.595,0.433-2.842 c0.251-1.255,0.558-2.61,0.911-4.026c0.35-1.402,0.726-2.755,1.115-4.023c0.387-1.259,0.719-2.227,0.986-2.874 c0.032-0.078,0.048-0.162,0.048-0.246c0-0.534-0.366-0.996-1.088-1.372c-1.021-0.529-2.358-0.61-3.587-0.185 c-0.479,0.166-0.9,0.44-1.255,0.815c-0.144,0.08-0.257,0.214-0.306,0.382l-0.289,0.984c-0.164,0.491-0.335,1.131-0.521,1.958 c-0.179,0.797-0.36,1.684-0.538,2.66c-0.179,0.974-0.347,1.975-0.506,3.009c-0.159,1.042-0.281,2.012-0.36,2.874 c-0.123,1.196-0.122,2.208-0.002,2.955c0.047,0.642,0.232,1.266,0.55,1.856c0.306,0.571,0.706,1.093,1.188,1.554 c0.491,0.468,1.053,0.839,1.671,1.103c0.629,0.27,1.293,0.407,1.971,0.407c0.584,0,1.159-0.228,1.71-0.678 c0.472-0.385,0.927-0.873,1.355-1.449c0.153-0.207,0.302-0.422,0.447-0.643c-0.03,0.186-0.06,0.377-0.092,0.573 c-0.213,1.32-0.486,2.715-0.812,4.152c-1.456,0.21-2.932,0.334-4.383,0.368c-0.395,0-0.76-0.019-1.079-0.055 c-0.365-0.044-0.676-0.064-0.934-0.064c-0.751,0-1.236,0.509-1.236,1.296c0,0.337,0.115,0.803,0.626,1.2 c-0.588,0.328-1.09,0.739-1.5,1.228c-0.365-0.342-0.7-0.785-0.997-1.32c-0.366-0.658-0.664-1.442-0.886-2.33 c-0.223-0.89-0.336-1.854-0.336-2.863c0-1.653,0.176-3.53,0.524-5.577c0.35-2.06,0.794-4.154,1.321-6.224 c0.53-2.081,1.104-4.08,1.705-5.941c0.605-1.874,1.17-3.518,1.673-4.872l3.606-9.696c0.153-0.356,0.23-0.76,0.228-1.15 c0.055-0.684-0.256-1.331-0.927-1.926c-0.584-0.515-1.275-0.89-2.055-1.113c-0.782-0.224-1.59-0.257-2.403-0.102 c-0.898,0.176-1.601,0.688-2.077,1.499l-4.978,7.797c0.136-0.605,0.272-1.239,0.409-1.903c0.158-0.773,0.297-1.477,0.408-2.076 c0.081-0.326,0.153-0.642,0.214-0.946c0.067-0.336,0.102-0.648,0.099-0.986c-0.057-0.622-0.394-1.166-0.999-1.612 c-0.52-0.384-1.116-0.66-1.772-0.82c-0.667-0.16-1.322-0.171-1.948-0.03c-0.728,0.161-1.261,0.573-1.509,1.127 c-0.119,0.2-0.447,0.776-0.985,1.732c-0.534,0.949-1.117,1.997-1.749,3.143c-0.636,1.152-1.237,2.284-1.787,3.364 c-0.016,0.033-0.033,0.065-0.049,0.097c-0.009-0.193-0.021-0.371-0.036-0.534c-0.083-1.094-0.257-2.222-0.518-3.353 c-0.269-1.156-0.668-2.227-1.187-3.183c-0.539-0.99-1.24-1.799-2.084-2.406c-0.885-0.634-2.014-0.93-3.336-0.89 c-1.894,0.085-3.683,0.713-5.316,1.864c-1.596,1.127-2.995,2.566-4.158,4.279c-1.154,1.7-2.096,3.615-2.8,5.691 C1.393,51.816,0.973,53.875,0.85,55.9v1.746c0,0.219,0.024,0.451,0.06,0.602C0.997,59.638,1.46,60.883,2.287,61.948z M40.388,84.041L40.388,84.041c0.265-0.193,0.506-0.423,0.719-0.686c0.133,0.077,0.29,0.186,0.473,0.336 c0.344,0.286,0.658,0.291,0.862,0.246c0.207-0.046,0.496-0.19,0.697-0.619c0.178-0.382,0.267-0.851,0.267-1.396 c0-0.524-0.111-1.033-0.329-1.516h0.574c0.241,0,0.499-0.004,0.771-0.009c-0.218,0.73-0.425,1.365-0.638,1.958 c-0.5,1.39-1.081,2.44-1.726,3.121c-0.589,0.622-1.288,0.924-2.137,0.924c-0.519,0-0.955-0.154-1.332-0.47 c-0.227-0.191-0.357-0.482-0.393-0.883C39.003,84.85,39.739,84.513,40.388,84.041z"></path> <path fill="#1D1D1B" d="M192.872,59.91c-0.143,0.388-0.255,0.716-0.335,0.982c-0.08,0.262-0.16,0.532-0.236,0.802 c-0.116,0.385-0.317,0.922-0.597,1.597c-0.294,0.711-0.599,1.452-0.913,2.222c-0.312,0.764-0.623,1.499-0.934,2.203 c-0.309,0.699-0.559,1.22-0.742,1.553c-0.221,0.406-0.51,0.847-0.862,1.31c-0.347,0.461-0.606,0.667-0.796,0.768 c-0.007-0.01-0.015-0.021-0.023-0.035c-0.022-0.036-0.208-0.395-0.053-2.057c0.037-0.709,0.191-1.659,0.458-2.822 c0.269-1.174,0.585-2.409,0.94-3.669c0.35-1.243,0.724-2.435,1.113-3.543c0.386-1.101,0.736-1.987,1.04-2.632 c0.029-0.062,0.048-0.129,0.057-0.197c0.068-0.562-0.227-1.091-0.878-1.573c-0.917-0.676-2.157-0.85-3.731-0.33 c-0.625,0.207-1.163,0.749-1.636,1.653c-0.236,0.013-0.493,0.067-0.778,0.162c-0.605,0.226-1.147,0.398-1.612,0.509 c-0.44,0.107-1.196,0.16-2.247,0.16c-0.63,0-1.12-0.065-1.458-0.194c-0.092-0.036-0.147-0.067-0.177-0.088 c0.29-0.84,0.547-1.611,0.769-2.314c0.236-0.746,0.451-1.414,0.651-2.013c0.44-1.398,0.805-2.494,1.116-3.349 c0.305-0.839,0.594-1.533,0.86-2.063c0.014-0.028,0.025-0.056,0.035-0.085c0.231-0.694,0.307-1.293,0.233-1.829 c-0.073-0.538-0.251-1.005-0.533-1.39c-0.285-0.39-0.656-0.681-1.104-0.866c-0.412-0.17-0.843-0.256-1.28-0.256 c-1.368,0-1.942,0.622-2.176,1.126c-0.008,0.017-0.016,0.034-0.025,0.051c-0.405-0.14-0.85-0.151-1.33-0.032 c-0.17,0.043-0.315,0.152-0.402,0.303c-0.087,0.151-0.11,0.331-0.061,0.499c0.168,0.589,0.027,1.043-0.459,1.472 c-0.603,0.533-1.465,0.988-2.56,1.353c-0.098,0.032-0.198,0.065-0.301,0.096c0.08-0.328,0.095-0.638,0.044-0.929 c-0.071-0.407-0.355-0.953-1.368-1.262c-0.89-0.175-1.701-0.162-2.406,0.043c-0.71,0.206-1.328,0.557-1.834,1.04 c-0.491,0.468-0.888,1.034-1.18,1.684c-0.066,0.148-0.126,0.299-0.181,0.455c-1.117,0.053-2.156,0.005-3.007-0.092 c-0.29-0.033-0.529-0.071-0.724-0.111l0.391-0.785l0.251-0.629c0.166-0.502,0.162-0.979-0.014-1.42 c-0.158-0.394-0.4-0.729-0.72-0.996c-0.302-0.25-0.655-0.44-1.05-0.563c-0.986-0.306-1.834-0.193-2.454,0 c-0.43,0.134-0.818,0.399-1.153,0.785c-0.3,0.344-0.593,0.829-0.898,1.482c-0.235,0.504-0.515,1.155-0.833,1.938l-4.039-0.524 c-0.911-0.158-1.73-0.279-2.435-0.36c-0.715-0.082-1.536-0.102-2.397-0.062c-1.831-0.04-3.121,0.267-3.927,0.952 c-0.787,0.673-1.258,1.45-1.401,2.309c-0.014,0.087-0.011,0.176,0.011,0.261c0.038,0.154,0.076,0.315,0.115,0.491 c0.067,0.292,0.251,0.511,0.508,0.6c0.195,0.068,0.507,0.088,0.82-0.169c0.691-0.436,1.371-0.749,2.019-0.93 c1.254-0.347,2.674-0.35,4.151-0.075c0.749,0.138,1.537,0.286,2.358,0.441c0.391,0.079,0.763,0.157,1.11,0.233 c0.364,0.083,0.768,0.162,1.165,0.232l0.967,0.251l-0.824,3.008c-0.165,0.494-0.311,1.048-0.434,1.642 c-0.116,0.562-0.252,1.132-0.408,1.72l-0.063,0.253c-0.354,1.573-0.684,3.236-0.984,4.945c-0.284,1.63-0.489,3.082-0.611,4.32 l-0.052,0.096c-0.116,0.217-0.233,0.432-0.353,0.639c-0.53,0.908-1.066,1.684-1.593,2.306c-0.562,0.661-0.809,0.709-0.853,0.692 c-0.003-0.003-0.27-0.262-0.087-1.732c0.075-0.948,0.269-2.081,0.577-3.366c0.312-1.308,0.667-2.609,1.055-3.869 c0.39-1.267,0.774-2.41,1.143-3.398c0.362-0.973,0.637-1.63,0.803-1.929c0.504-0.819,0.297-1.634-0.555-2.182 c-0.656-0.423-1.451-0.637-2.361-0.637c-0.724,0-1.425,0.162-2.084,0.479c-0.715,0.348-1.247,0.939-1.577,1.748 c-0.354,0.829-0.636,1.539-0.839,2.11c-0.195,0.551-0.361,1.012-0.498,1.384c-0.143,0.389-0.255,0.717-0.336,0.982 c-0.08,0.262-0.159,0.532-0.235,0.802c-0.115,0.382-0.316,0.919-0.597,1.597c-0.294,0.711-0.599,1.452-0.913,2.222 c-0.312,0.764-0.624,1.499-0.935,2.203c-0.315,0.711-0.557,1.218-0.742,1.553c-0.221,0.406-0.51,0.847-0.862,1.31 c-0.347,0.461-0.606,0.667-0.796,0.768c-0.007-0.01-0.014-0.02-0.022-0.034c-0.022-0.036-0.208-0.396-0.053-2.059 c0.036-0.707,0.19-1.656,0.458-2.821c0.271-1.183,0.588-2.417,0.94-3.669c0.35-1.243,0.724-2.435,1.113-3.543 c0.386-1.101,0.736-1.987,1.04-2.632c0.029-0.062,0.048-0.129,0.057-0.197c0.068-0.562-0.227-1.091-0.878-1.573 c-0.917-0.677-2.157-0.851-3.73-0.33c-0.723,0.239-1.329,0.924-1.848,2.086c-0.456,0.979-0.854,2.165-1.183,3.525 c-0.321,1.329-0.597,2.669-0.82,3.982c-0.194,1.153-0.346,2.282-0.451,3.355c-0.328,0.779-0.611,1.396-0.887,1.935 c-0.363,0.707-0.722,1.24-1.043,1.562c-0.397,0.357-0.585,0.367-0.605,0.367c-0.048,0-0.093,0-0.169-0.119 c-0.082-0.126-0.187-0.383-0.225-0.886c-0.036-0.45,0.001-0.97,0.109-1.547c0.156-0.823,0.343-1.713,0.558-2.673 c0.204-0.911,0.475-1.707,0.837-2.441c0.226-0.633,0.318-1.26,0.273-1.864c-0.044-0.574-0.372-1.04-0.978-1.391 c0.164-0.091,0.335-0.225,0.503-0.423c0.315-0.375,0.485-0.937,0.536-1.808c0-1.361-0.548-2.411-1.584-3.037 c-1.644-0.993-3.849-1.114-6.228-0.423c-1.002,0.293-1.936,0.717-2.764,1.254c-0.89,0.551-1.764,1.381-2.598,2.464 c-0.813,1.056-1.552,2.236-2.196,3.507c-0.642,1.265-1.192,2.579-1.635,3.907c-0.118,0.352-0.221,0.697-0.315,1.035 c-0.46,0.665-0.955,1.254-1.473,1.752c-1.354,1.3-2.674,2.142-3.87,2.518c-0.142-0.014-0.282,0.023-0.404,0.098 c-0.382,0.056-0.982,0.134-1.261,0.134c-1.021,0-1.689-0.308-2.043-0.944c-0.41-0.735-0.582-1.641-0.517-2.637 c0.074-0.487,0.188-0.997,0.338-1.52c0.08-0.281,0.207-0.555,0.379-0.817c0.223,0.115,0.471,0.187,0.74,0.216 c0.4,0.042,0.811,0.063,1.222,0.063c0.85,0,1.708-0.225,2.549-0.667c0.807-0.424,1.552-0.995,2.213-1.697 c0.649-0.692,1.202-1.467,1.641-2.304c0.451-0.858,0.724-1.735,0.811-2.607c0.093-0.979-0.163-1.919-0.73-2.743 c-0.275-0.492-0.727-0.858-1.343-1.088c-1.038-0.39-2.31-0.422-3.825-0.02c-0.733,0.194-1.473,0.531-2.173,0.985 c-0.997,0.582-1.921,1.317-2.746,2.184c-0.818,0.858-1.545,1.824-2.162,2.871c-0.611,1.039-1.117,2.144-1.506,3.287 c-0.389,1.149-0.629,2.318-0.713,3.468c-0.02,0.237-0.032,0.477-0.033,0.717c-0.04-0.013-0.08-0.026-0.12-0.037 c-0.415-0.123-0.86-0.245-1.335-0.368c-0.194-1.598-0.623-3.154-1.277-4.632c-0.623-1.405-1.563-2.577-2.801-3.494 c1.181-1.045,2.294-2.391,3.319-4.012c1.196-1.893,1.927-4.116,2.194-6.6c0.009-0.011,0.024-0.016,0.033-0.028 c0.121-0.169,0.154-0.384,0.089-0.581l-0.022-0.065l0.054-1.296c-0.041-1.025-0.176-2.049-0.4-3.047 c-0.231-1.029-0.594-1.968-1.08-2.792c-0.491-0.832-1.099-1.547-1.804-2.125c-0.725-0.592-1.581-1.004-2.538-1.222 c-0.959-0.227-1.94-0.138-2.914,0.27c-0.914,0.382-1.794,0.96-2.616,1.719c-0.8,0.738-1.557,1.609-2.249,2.588 c-0.308,0.432-0.601,0.874-0.88,1.322c-0.099-0.486-0.243-0.948-0.432-1.384c-0.435-0.997-1.062-1.844-1.865-2.517 c-0.788-0.659-1.701-1.175-2.715-1.534c-1.828-0.647-3.804-0.726-5.917-0.163c-0.949,0.253-1.857,0.659-2.704,1.208 c-1.297,0.851-2.566,1.895-3.773,3.104c-1.214,1.213-2.291,2.577-3.201,4.055c-0.911,1.478-1.65,3.068-2.195,4.726 c-0.553,1.676-0.832,3.378-0.832,5.057c0,1.231,0.228,2.365,0.678,3.371c0.474,1.059,1.319,1.91,2.495,2.52 c0.443,0.247,0.948,0.383,1.498,0.406c0.494,0.022,0.999-0.009,1.502-0.097c0.514-0.09,0.982-0.239,1.392-0.444 c0.455-0.227,0.798-0.51,1.017-0.841c0.131-0.198,0.143-0.452,0.031-0.661c-0.112-0.21-0.33-0.34-0.568-0.34 c-0.714,0-1.25-0.225-1.638-0.688c-0.436-0.519-0.728-1.184-0.866-1.981c-0.146-0.805-0.164-1.781-0.055-2.873 c0.152-1.069,0.377-2.213,0.668-3.4c0.286-1.164,0.664-2.307,1.123-3.398c0.457-1.086,0.987-2.098,1.576-3.01 c0.573-0.888,1.217-1.636,1.918-2.226c0.735-0.625,1.484-1.097,2.227-1.406c2.089-0.862,3.725-0.503,4.751,1.061 c0.699,1.067,0.904,2.764,0.608,5.059c-0.231,2.281-0.605,4.493-1.11,6.574c-0.508,2.089-1.042,4.048-1.588,5.823 c-0.545,1.768-1.106,3.353-1.667,4.71c-0.569,1.374-1.03,2.454-1.41,3.311c-0.2,0.637-0.38,1.234-0.538,1.792 c-0.173,0.605-0.241,1.219-0.205,1.825c-0.119,1.355,0.361,2.604,1.447,3.732c0.918,0.872,1.529,1.244,2.042,1.244 c0.303,0,0.87-0.115,1.257-0.89c0.191-0.384,0.423-0.947,0.696-1.69c0.514-1.188,1.028-2.507,1.527-3.92 c0.492-1.397,0.964-2.863,1.402-4.355c0.435-1.484,0.85-2.959,1.246-4.424c0.396-1.464,0.752-2.83,1.064-4.074l0.667-2.323 l0.059-0.355c0.001-0.008,0.003-0.016,0.004-0.024c0.046-0.063,0.08-0.135,0.101-0.21l1.546-5.708 c0.114-0.494,0.296-1.087,0.541-1.762c0.237-0.659,0.555-1.302,0.943-1.914c0.379-0.596,0.836-1.126,1.357-1.576 c0.483-0.416,1.045-0.668,1.748-0.774c0.628-0.126,1.125-0.065,1.515,0.18c0.43,0.271,0.768,0.676,1.033,1.239 c0.281,0.597,0.46,1.33,0.533,2.179c0.075,0.889,0.075,1.839,0,2.824c-0.076,0.945-0.239,1.916-0.485,2.883 c-0.248,0.971-0.556,1.885-0.914,2.716c-0.352,0.813-0.771,1.531-1.248,2.136c-0.409,0.52-0.86,0.921-1.344,1.191 c-0.018-0.002-0.037-0.004-0.058-0.007c-0.034-0.02-0.07-0.039-0.108-0.053c-0.805-0.313-1.625-0.426-2.418-0.337 c-1.615,0.134-2.609,0.439-3.126,0.956c-0.518,0.518-0.78,1.09-0.778,1.64c-0.041,0.454,0.064,1.119,0.799,1.714 c0.52,0.421,1.246,0.638,2.157,0.646c0.759,0.122,1.479,0.128,2.14,0.022c0.549-0.088,1.084-0.217,1.594-0.383 c0.684,0.376,1.217,0.904,1.624,1.607c0.397,0.689,0.653,1.794,0.763,3.291c-1.374-0.031-2.761,0.123-4.15,0.47 c-1.634,0.408-3.129,1.022-4.442,1.821c-1.321,0.804-2.453,1.791-3.365,2.931c-0.944,1.18-1.488,2.48-1.618,3.856 c-0.219,2.01,0.342,3.7,1.665,5.025c1.198,1.199,2.982,1.803,5.301,1.803c0.222,0,0.449-0.005,0.68-0.017 c1.497-0.042,2.947-0.526,4.308-1.44c1.309-0.882,2.48-1.94,3.481-3.143c1-1.205,1.798-2.47,2.373-3.763 c0.306-0.69,0.526-1.324,0.663-1.909c0.038,0.061,0.074,0.123,0.109,0.186c0.262,0.471,0.448,0.977,0.549,1.48 c0.105,0.63,0.329,1.492,1.051,1.698c0.355,0.101,0.902,0.099,1.491-0.49c0.352-0.351,0.665-0.827,0.958-1.457 c0.045-0.097,0.086-0.194,0.125-0.295c0.414,0.325,0.878,0.607,1.387,0.844c1.741,0.811,4.371,0.945,7.175-0.036 c1.254-0.438,2.483-1.122,3.658-2.035c0.025,0.078,0.052,0.156,0.082,0.233c0.165,0.33,0.439,0.637,0.841,0.938 c0.348,0.26,0.72,0.49,1.105,0.683c0.374,0.187,0.748,0.354,1.119,0.497c0.403,0.157,0.735,0.257,0.957,0.29 c0.947,0.25,1.851,0.053,2.688-0.585c0.716-0.548,1.368-1.22,1.935-1.998c0.48-0.658,0.904-1.325,1.263-1.99 c0.014,0.069,0.029,0.138,0.044,0.205c0.169,0.788,0.431,1.505,0.775,2.13c0.365,0.663,0.885,1.218,1.544,1.649 c0.676,0.443,1.542,0.669,2.56,0.669c1.765,0.026,3.319-0.742,4.641-2.316c0.376,0.412,0.807,0.784,1.286,1.109 c0.598,0.407,1.241,0.723,1.91,0.938c0.689,0.223,1.321,0.313,1.885,0.266c0.582-0.052,1.171-0.361,1.749-0.917 c0.497-0.475,0.992-1.053,1.471-1.718c0.356-0.497,0.679-1.008,0.964-1.523c0.087,0.474,0.21,0.924,0.365,1.342 c0.225,0.608,0.557,1.156,0.985,1.628c0.455,0.505,1.025,0.857,1.665,1.038c1.126,0.376,2.28,0.229,3.429-0.439 c0.765-0.444,1.493-1.033,2.171-1.757c0.036,0.06,0.075,0.119,0.114,0.176c0.728,1.048,1.901,1.735,3.475,2.039 c1.669,0.352,3.128,0.12,4.339-0.685c0.626-0.418,1.226-0.987,1.791-1.698c0.235,0.423,0.523,0.795,0.866,1.116 c0.615,0.528,1.247,0.899,1.881,1.103c0.616,0.198,1.359,0.298,2.21,0.298c1.363,0,2.62-0.433,3.737-1.288 c0.22-0.169,0.439-0.349,0.654-0.54c0.008,0.291,0.028,0.584,0.061,0.874c0.033,0.282,0.033,0.559,0,0.822 c-0.005,0.042-0.006,0.084-0.004,0.126c0.044,0.608,0.175,1.223,0.392,1.829c0.215,0.598,0.487,1.151,0.807,1.643 c0.339,0.52,0.753,0.957,1.23,1.297c0.524,0.376,1.138,0.566,1.825,0.566c0.72,0,1.624-0.342,2.823-1.083 c1.144-0.89,2.096-2.179,2.828-3.831c0.713-1.609,1.238-3.812,1.562-6.555c0.202-1.834,0.14-3.622-0.186-5.315 c-0.239-1.235-0.581-2.319-1.02-3.237c0.678-0.009,1.276-0.027,1.808-0.053c0.354-0.017,0.699-0.058,1.04-0.123 c-0.316,1.312-0.588,2.635-0.808,3.932c-0.221,1.314-0.385,2.556-0.487,3.692c-0.102,1.163-0.152,2.024-0.152,2.632 c0,0.7,0.246,1.363,0.733,1.973c0.435,0.542,0.961,1.025,1.562,1.432c0.598,0.407,1.241,0.723,1.91,0.938 c0.689,0.223,1.323,0.311,1.885,0.266c0.582-0.052,1.171-0.361,1.748-0.917c0.497-0.475,0.992-1.053,1.47-1.718 c0.356-0.495,0.679-1.007,0.965-1.524c0.087,0.476,0.21,0.926,0.364,1.343c0.225,0.608,0.557,1.156,0.985,1.628 c0.455,0.505,1.025,0.857,1.665,1.038c1.127,0.378,2.28,0.229,3.429-0.439c0.801-0.464,1.563-1.091,2.271-1.867 c0.064,0.076,0.131,0.151,0.201,0.222c0.992,1.013,2.254,1.7,3.75,2.042c1.565,0.358,2.945,0.114,4.105-0.729 c1.089-0.789,2.084-2.116,2.956-3.944c0.442-0.925,0.869-1.973,1.27-3.113c0.404-1.155,0.806-2.433,1.201-3.817 c0.158-0.634-0.034-1.076-0.223-1.334c-0.245-0.336-0.575-0.566-0.958-0.661c-0.381-0.094-0.78-0.047-1.154,0.138 c-0.4,0.2-0.689,0.59-0.862,1.162c-0.312,1.05-0.654,2.037-1.016,2.931c-0.368,0.908-0.75,1.76-1.134,2.529 c-0.648,1.295-1.288,2.33-1.904,3.075c-0.714,0.866-1.15,1.046-1.35,1.076c-0.058,0.012-0.238,0.039-0.446-0.553 c-0.154-0.439-0.3-1.378-0.115-3.363c0.154-1.501,0.458-3.206,0.904-5.067c0.444-1.859,0.939-3.71,1.471-5.502 c0.536-1.801,1.061-3.445,1.561-4.887c0.512-1.479,0.907-2.612,1.166-3.355l1.146-2.601c0.168-0.503,0.163-0.982-0.013-1.42 c-0.158-0.395-0.399-0.73-0.72-0.997c-0.302-0.251-0.654-0.44-1.05-0.564c-0.98-0.304-1.824-0.194-2.473-0.003 c-0.437,0.128-0.848,0.382-1.222,0.756c-0.355,0.356-0.669,0.845-0.96,1.492c-0.269,0.597-0.558,1.385-0.888,2.417 c-0.397,1.311-0.818,2.802-1.249,4.432c-0.43,1.623-0.85,3.333-1.249,5.085c-0.398,1.754-0.758,3.506-1.071,5.207 c-0.317,1.724-0.559,3.343-0.718,4.815l-0.009,0.125l-0.083,0.15c-0.53,0.908-1.066,1.684-1.593,2.306 c-0.56,0.661-0.808,0.709-0.852,0.692c-0.003-0.003-0.27-0.262-0.086-1.733c0.075-0.947,0.269-2.08,0.577-3.365 c0.312-1.305,0.666-2.607,1.054-3.869c0.391-1.27,0.775-2.412,1.143-3.398c0.45-1.211,0.693-1.731,0.803-1.929 c0.504-0.819,0.297-1.634-0.555-2.182c-0.656-0.423-1.451-0.637-2.362-0.637c-0.724,0-1.424,0.162-2.084,0.479 c-0.715,0.348-1.247,0.938-1.578,1.749c-0.354,0.831-0.636,1.54-0.838,2.108C193.174,59.078,193.008,59.538,192.872,59.91z M107.462,61.379c0.338-0.507,0.737-1.021,1.189-1.529c0.445-0.502,0.906-0.945,1.371-1.316c0.354-0.283,0.554-0.39,0.641-0.43 c0.08,0.132,0.119,0.268,0.12,0.401c-0.032,0.346-0.166,0.74-0.399,1.174c-0.254,0.471-0.556,0.91-0.897,1.305 c-0.344,0.398-0.716,0.743-1.105,1.025c-0.32,0.233-0.611,0.35-0.865,0.35c-0.023,0-0.147-0.004-0.526-0.115 C107.031,62.118,107.143,61.856,107.462,61.379z M86.143,59.817c-0.033-0.003-0.067-0.003-0.1-0.001 c-0.073,0.004-0.139,0.008-0.201,0.01c0.144-0.075,0.301-0.143,0.469-0.203h0.129c0.202,0,0.399,0.004,0.589,0.014 C86.717,59.784,86.426,59.846,86.143,59.817z M91.996,71.552c-0.208,1.037-0.554,2.119-1.027,3.217 c-0.463,1.075-1.121,2.08-1.954,2.987c-0.799,0.869-1.774,1.395-2.977,1.606c-0.609,0.1-1.197,0.068-1.749-0.099 c-0.566-0.172-1.058-0.431-1.463-0.766c-0.405-0.338-0.73-0.74-0.965-1.195c-0.215-0.414-0.291-0.819-0.226-1.275 c0.067-0.765,0.443-1.548,1.119-2.328c0.715-0.826,1.633-1.555,2.729-2.17c1.104-0.617,2.322-1.082,3.62-1.384 c0.787-0.183,1.57-0.274,2.339-0.274c0.278,0,0.555,0.012,0.83,0.036C92.222,70.327,92.131,70.877,91.996,71.552z M126.685,60.259 c-0.912,0.287-1.726,1.037-2.5,2.312l-3.713,6.604c-0.808,1.284-1.313,1.806-1.603,2.021c-0.01-0.121-0.013-0.294,0.004-0.534 c0.039-0.311,0.087-0.661,0.146-1.048c0.055-0.361,0.155-0.763,0.303-1.205c0.234-0.74,0.528-1.574,0.875-2.48 c0.349-0.911,0.741-1.822,1.164-2.707c0.426-0.89,0.875-1.74,1.337-2.528c0.448-0.764,0.918-1.414,1.38-1.913 c0.935-0.935,1.778-1.409,2.505-1.409c0.629,0,0.894,0.236,1.04,0.415c0.261,0.32,0.388,0.651,0.388,1.013 c0,0.456,0.148,0.858,0.427,1.165C127.834,59.983,127.247,60.082,126.685,60.259z M173.148,55.173 c-0.671,2.546-1.282,5.281-1.816,8.127c-0.207,1.108-0.387,2.193-0.55,3.264l-0.227,0.484c-0.439,0.917-0.911,1.745-1.401,2.461 c-0.471,0.688-0.977,1.233-1.507,1.62c-0.443,0.326-0.877,0.424-1.388,0.302c-0.252-0.05-0.532-0.173-0.694-0.71 c-0.173-0.569-0.224-1.274-0.152-2.098c0.075-0.906,0.258-1.915,0.544-2.997c0.295-1.12,0.601-2.197,0.91-3.202 c0.309-1.006,0.622-1.906,0.929-2.673c0.318-0.795,0.538-1.353,0.621-1.592c0.276-0.513,0.227-0.917,0.137-1.166 c-0.137-0.378-0.453-0.668-0.938-0.863c-1.166-0.467-2.572-0.508-3.746-0.202c-0.805,0.209-1.118,0.631-1.236,0.972 c-0.24,0.486-0.501,1.11-0.776,1.855c-0.281,0.763-0.546,1.609-0.788,2.515c-0.241,0.908-0.463,1.846-0.659,2.787 c-0.201,0.966-0.344,1.906-0.427,2.816c-0.008,0.126-0.011,0.249-0.014,0.372l0,0.014c-0.16,0.35-0.326,0.686-0.507,1.016 c-0.644,1.249-1.29,2.24-1.921,2.944c-0.754,0.843-1.171,0.961-1.318,0.972c-0.213-0.014-0.383-0.374-0.465-0.608 c-0.154-0.437-0.3-1.365-0.114-3.309c0.153-1.655,0.427-3.381,0.816-5.131c0.386-1.738,0.82-3.395,1.29-4.924 c0.463-1.507,0.926-2.835,1.373-3.944c0.328-0.816,0.601-1.45,0.813-1.893l1.156,0.122c0.415,0.084,0.951,0.155,1.638,0.218 c0.508,0.046,1.302,0.087,2.362,0.122c0.35,0.898,0.891,1.167,1.29,1.235c0.355,0.058,1.036,0.028,1.602-0.861 c0.081-0.131,0.156-0.256,0.225-0.371c1.806-0.098,3.448-0.399,4.885-0.897c0.376-0.131,0.735-0.272,1.076-0.423 C173.824,52.687,173.482,53.908,173.148,55.173z M178.131,67.035c-0.057,1.434-0.232,2.862-0.52,4.246 c-0.288,1.384-0.588,2.51-0.883,3.322c-0.41,1.005-0.867,1.829-1.359,2.448c-0.101,0.127-0.182,0.214-0.246,0.274 c-0.051-0.172-0.12-0.491-0.178-1.064c-0.051-0.502,0.005-1.763,0.05-2.448c0.082-0.107,0.131-0.242,0.131-0.389 c0-0.092-0.02-0.181-0.055-0.26c0.04-0.969,0.137-2.037,0.286-3.179c0.154-1.18,0.342-2.385,0.558-3.581 c0.213-1.18,0.449-2.335,0.704-3.432c0.165-0.711,0.335-1.368,0.509-1.964c0.324,0.522,0.564,1.182,0.718,1.971 C178.092,64.25,178.188,65.614,178.131,67.035z"></path> <path fill="#1D1D1B" d="M72.509,105.964c0-0.001,0-0.002,0-0.003c0.201-2.29,0.099-4.647-0.303-7.004 c-0.408-2.381-1.204-4.549-2.366-6.444c-1.178-1.921-2.809-3.48-4.85-4.635c-2.057-1.163-4.655-1.65-7.767-1.44 c-1.915,0.234-3.854,0.757-5.765,1.555c-0.09,0.002-0.181,0.022-0.267,0.059c-0.054,0.022-0.104,0.053-0.149,0.091 c-2.199,0.921-4.298,2.142-6.242,3.634c-1.999,1.536-3.668,3.257-4.949,5.099c-0.126,0.169-0.264,0.37-0.411,0.6 c-0.154,0.241-0.273,0.449-0.348,0.6c-0.708,1.291-1.132,2.527-1.259,3.659c-0.175,1.318,0.009,2.488,0.547,3.474 c0.586,1.074,1.761,1.665,3.467,1.753c0.491,0.046,0.995,0.023,1.501-0.067c0.338-0.059,0.81-0.184,1.002-0.603 c0.113-0.246,0.093-0.529-0.056-0.778c-0.067-0.111-0.166-0.2-0.284-0.254c-0.4-0.184-0.706-0.453-0.936-0.822 c-0.226-0.36-0.32-0.778-0.289-1.26c0.033-0.372,0.149-0.822,0.345-1.339c0.204-0.538,0.482-1.141,0.802-1.751l0.006-0.01 c0.026-0.019,0.057-0.03,0.081-0.054c0.123-0.122,0.187-0.274,0.218-0.431l0.621-1.008l0.147-0.172 c0.09-0.051,0.169-0.124,0.227-0.217c0.724-1.143,1.574-2.235,2.53-3.248c0.954-1.012,1.978-1.911,3.044-2.671 c1.059-0.757,2.162-1.381,3.281-1.855c1.104-0.469,2.177-0.782,3.172-0.931c2.068-0.252,3.731,0.093,4.948,1.026 c1.264,0.971,2.23,2.275,2.873,3.875c0.662,1.645,1.065,3.452,1.199,5.369c0.135,1.956,0.145,3.728,0.032,5.251 c-0.195,1.978-0.549,4.051-1.052,6.16c-0.465,1.951-1.07,3.884-1.8,5.753c-0.438-0.054-0.881-0.103-1.329-0.146 c-1.944-0.191-3.968-0.087-5.877,0.305c-1.292,0.268-2.49,0.675-3.563,1.21c-1.092,0.547-2.05,1.261-2.849,2.122 c-0.537,0.58-0.964,1.24-1.295,1.952c0.381-1.372,0.776-2.883,1.18-4.528c0.57-2.32,1.139-4.775,1.692-7.298 c0.548-2.508,1.077-5.083,1.571-7.654c0.494-2.567,0.923-4.984,1.283-7.225c0.092-0.972-0.022-1.725-0.348-2.303 c-0.472-0.833-1.129-1.008-1.597-1.008c-0.629,0-1.251,0.354-1.851,1.054c-0.55,0.644-0.945,1.55-1.201,2.75 c-0.509,2.035-1.046,4.071-1.595,6.053c-0.552,1.991-1.094,3.902-1.626,5.736c-0.521,1.795-1.047,3.532-1.564,5.166 c-0.515,1.621-0.97,3.084-1.36,4.372l-0.282,0.852c-0.261,0.65-0.396,1.311-0.402,1.966c-0.083,0.585-0.046,1.175,0.111,1.756 c0.158,0.584,0.399,1.111,0.717,1.564c0.021,0.03,0.045,0.059,0.071,0.084c0.316,0.317,0.69,0.601,1.109,0.842 c0.431,0.251,0.862,0.425,1.281,0.518c0.203,0.044,0.402,0.067,0.594,0.067c0.252,0,0.494-0.038,0.724-0.114 c0.35-0.116,0.631-0.336,0.837-0.654c-0.154,0.9-0.074,1.827,0.245,2.766c0.427,1.26,1.357,2.278,2.77,3.028 c1.152,0.598,2.408,0.902,3.73,0.902c1.228,0,2.461-0.267,3.664-0.795c1.173-0.515,2.307-1.213,3.372-2.072 c1.051-0.849,2.056-1.833,2.987-2.925c0.712-0.836,1.397-1.697,2.044-2.566c0.246,0.471,0.389,1.009,0.433,1.615 c0,1.08,0.323,1.708,0.961,1.868c0.366,0.089,0.941,0.08,1.592-0.499c0.415-0.37,0.791-0.874,1.147-1.54 c0.35-0.656,0.572-1.326,0.664-2.015c0.089-0.889-0.177-1.678-0.772-2.298c-0.052-0.107-0.134-0.201-0.24-0.267 c-0.307-0.191-0.614-0.392-0.924-0.606c-0.159-0.108-0.317-0.214-0.476-0.319c0.923-1.895,1.668-3.901,2.216-5.97 C71.903,110.426,72.308,108.169,72.509,105.964z M60.603,122.708c-0.646,1.044-1.338,1.967-2.057,2.743 c-0.704,0.758-1.441,1.366-2.191,1.807c-1.373,0.804-2.752,0.859-4.102,0.007c-0.374-0.231-0.63-0.611-0.783-1.165 c-0.165-0.589-0.168-1.104,0.005-1.625c0.169-0.681,0.507-1.304,1.006-1.855c0.517-0.571,1.164-1.062,1.923-1.46 c0.775-0.406,1.647-0.715,2.589-0.918c0.962-0.207,1.963-0.311,2.974-0.311c0.504,0,0.999,0.009,1.483,0.028 c0.21,0.009,0.419,0.028,0.624,0.055C61.619,120.959,61.126,121.863,60.603,122.708z"></path> <path fill="#1D1D1B" d="M174.745,112.23c-0.279,0.917-0.547,1.861-0.807,2.836c-0.261,0.984-0.473,1.926-0.627,2.779 c-0.352,1.578-0.127,3.06,0.665,4.405c0.815,1.379,2.289,2.211,4.395,2.474c0.808,0.084,1.586,0.063,2.311-0.066 c0.817-0.144,1.63-0.652,2.491-1.556c0.582-0.625,1.148-1.399,1.683-2.304c0.526-0.892,1.007-1.855,1.43-2.86 c0.413-0.981,0.797-2.002,1.143-3.036c0.352-1.058,0.635-1.967,0.872-2.801c0.106-0.425-0.072-0.838-0.474-1.106 c-0.268-0.178-0.59-0.283-0.958-0.312c-0.335-0.029-0.674,0.012-1.013,0.115c-0.452,0.141-0.78,0.455-0.929,0.905 c-0.113,0.379-0.317,0.951-0.606,1.7c-0.294,0.765-0.617,1.581-0.971,2.444c-0.352,0.86-0.734,1.702-1.135,2.502 c-0.397,0.795-0.788,1.462-1.158,1.98c-0.392,0.534-0.811,0.964-1.248,1.279c-0.498,0.359-0.775,0.412-0.897,0.412 c-0.222,0-0.308-0.067-0.362-0.131c-0.124-0.148-0.378-0.676-0.072-2.355c0.191-0.958,0.513-2.139,0.957-3.509 c0.447-1.381,0.93-2.733,1.437-4.02c0.506-1.283,0.998-2.424,1.462-3.39c0.623-1.296,0.89-1.51,0.918-1.531 c0.487-0.348,0.687-0.883,0.549-1.475c-0.104-0.438-0.342-0.868-0.707-1.284c-0.348-0.393-0.789-0.731-1.309-1.002 c-0.545-0.284-1.113-0.429-1.69-0.429c-0.88,0-1.649,0.424-2.261,1.228c-0.315,0.36-0.51,0.707-0.595,1.056 c-0.079,0.09-0.257,0.236-0.652,0.403c-0.263,0.111-0.595,0.189-0.991,0.233c0.114-0.505,0.217-1.033,0.309-1.577 c0.155-0.936,0.075-1.842-0.238-2.695c-0.492-1.341-1.188-2.238-2.07-2.668c-0.874-0.424-1.739-0.519-2.574-0.273 c-0.271,0.083-0.522,0.18-0.753,0.29c0.385-0.333,0.716-0.69,0.991-1.07c0.489-0.666,0.805-1.338,0.941-1.998 c0.141-0.681,0.124-1.291-0.05-1.816c-0.188-0.56-0.53-0.994-1.016-1.292c-0.506-0.31-1.089-0.384-1.734-0.224 c-0.17,0.043-0.315,0.152-0.402,0.303c-0.087,0.151-0.11,0.331-0.061,0.499c0.168,0.589,0.027,1.044-0.459,1.473 c-0.604,0.533-1.465,0.987-2.561,1.352c-1.137,0.379-2.432,0.668-3.849,0.86c-1.419,0.192-2.804,0.289-4.117,0.289 c-0.843,0-1.606-0.038-2.267-0.114c-0.29-0.033-0.529-0.071-0.724-0.111l0.391-0.785l0.251-0.629 c0.166-0.502,0.162-0.979-0.014-1.42c-0.158-0.394-0.4-0.729-0.72-0.995c-0.301-0.251-0.654-0.44-1.05-0.564 c-0.985-0.305-1.834-0.193-2.454,0c-0.431,0.134-0.819,0.399-1.154,0.785c-0.3,0.345-0.593,0.83-0.897,1.483 c-0.236,0.505-0.516,1.156-0.834,1.937l-4.039-0.524c-0.912-0.158-1.731-0.279-2.435-0.36c-0.714-0.083-1.536-0.102-2.396-0.062 c-0.676-0.018-1.276,0.017-1.805,0.1c0.015-0.03,0.03-0.061,0.045-0.091c0.277-0.501,0.358-0.997,0.239-1.476 c-0.108-0.431-0.324-0.81-0.643-1.127c-0.3-0.301-0.687-0.541-1.151-0.712c-0.963-0.354-2.005-0.356-3.026,0.221 c-0.558,0.315-0.991,0.748-1.286,1.287c-0.021,0.039-0.039,0.08-0.051,0.123c-0.787,2.596-1.467,5.046-2.022,7.285 c-0.556,2.243-1.035,4.292-1.426,6.091c-0.352,1.68-0.672,3.403-0.953,5.122c-0.165,1.019-0.38,2.103-0.675,3.404 c-0.003,0.004-0.006,0.009-0.009,0.013c-0.965,1.141-1.553,1.311-1.818,1.311c-0.126,0-0.16-0.037-0.181-0.059 c-0.065-0.07-0.271-0.387-0.184-1.485c0.073-0.774,0.182-1.371,0.322-1.774c0.148-0.427,0.378-0.973,0.709-1.683 c0.232-0.652,0.302-1.294,0.207-1.912c-0.118-0.764-0.699-1.334-1.726-1.694c-0.05-0.018-0.102-0.028-0.155-0.034 c-0.95-0.086-1.845,0.002-2.654,0.265c-0.896,0.29-1.683,1.044-2.407,2.311l-3.831,6.604c-0.774,1.23-1.262,1.762-1.547,1.994 c-0.007-0.121-0.008-0.286,0.008-0.508c0.038-0.311,0.087-0.66,0.146-1.048c0.054-0.36,0.155-0.762,0.293-1.175 c0.267-0.726,0.6-1.528,0.988-2.383c0.389-0.855,0.838-1.722,1.334-2.58c0.499-0.865,1.046-1.713,1.624-2.523 c0.579-0.811,1.182-1.569,1.767-2.228c0.884-0.883,1.689-1.35,2.328-1.35c0.218,0,0.354,0.071,0.471,0.245 c0.183,0.275,0.309,0.627,0.37,1.024c0.099,0.806,0.655,1.062,1.084,1.007c0.37-0.035,0.712-0.207,1.019-0.512 c0.252-0.253,0.466-0.578,0.636-0.966c0.199-0.455,0.239-0.899,0.105-1.366c-0.42-1.162-1.502-2.559-4.251-2.615 c-0.985-0.041-1.984,0.11-2.962,0.451c-0.939,0.327-1.829,0.72-2.686,1.193c-0.963,0.628-1.902,1.523-2.791,2.659 c-0.869,1.112-1.656,2.318-2.339,3.585c-0.683,1.266-1.264,2.571-1.727,3.88c-0.286,0.811-0.506,1.613-0.653,2.386 c-0.522,0.891-1.051,1.654-1.57,2.267c-0.561,0.661-0.806,0.703-0.853,0.692c-0.003-0.003-0.27-0.262-0.086-1.732 c0.075-0.951,0.269-2.084,0.577-3.366c0.312-1.309,0.667-2.61,1.055-3.868c0.389-1.266,0.773-2.409,1.143-3.399 c0.363-0.975,0.637-1.632,0.803-1.93c0.503-0.818,0.296-1.634-0.555-2.181c-0.656-0.423-1.451-0.637-2.362-0.637 c-0.725,0-1.426,0.162-2.083,0.48c-0.715,0.346-1.247,0.938-1.578,1.748c-0.354,0.831-0.636,1.54-0.838,2.108 c-0.196,0.552-0.362,1.013-0.498,1.386c-0.143,0.389-0.255,0.716-0.335,0.981c-0.08,0.262-0.16,0.532-0.236,0.802 c-0.114,0.381-0.315,0.917-0.597,1.597c-0.295,0.712-0.599,1.452-0.914,2.223c-0.312,0.764-0.623,1.499-0.934,2.203 c-0.309,0.698-0.558,1.219-0.742,1.553c-0.22,0.405-0.51,0.846-0.862,1.311c-0.348,0.46-0.607,0.666-0.797,0.767 c-0.007-0.01-0.015-0.021-0.023-0.035c-0.022-0.036-0.208-0.396-0.053-2.058c0.037-0.708,0.191-1.658,0.458-2.821 c0.268-1.171,0.585-2.406,0.939-3.67c0.35-1.245,0.725-2.436,1.113-3.542c0.384-1.096,0.734-1.982,1.04-2.633 c0.029-0.061,0.048-0.128,0.056-0.195c0.07-0.562-0.226-1.091-0.878-1.574c-0.918-0.676-2.159-0.85-3.73-0.33 c-0.723,0.239-1.329,0.924-1.848,2.086c-0.456,0.979-0.854,2.165-1.183,3.525c-0.322,1.333-0.598,2.672-0.82,3.983 c-0.194,1.152-0.346,2.28-0.451,3.354c-0.333,0.792-0.609,1.392-0.887,1.935c-0.362,0.706-0.721,1.239-1.042,1.562 c-0.398,0.358-0.585,0.368-0.605,0.368c-0.045,0-0.092,0-0.168-0.119c-0.082-0.127-0.187-0.384-0.225-0.886 c-0.036-0.45,0.001-0.97,0.109-1.547c0.155-0.823,0.343-1.713,0.558-2.673c0.205-0.912,0.476-1.709,0.837-2.441 c0.226-0.634,0.318-1.261,0.273-1.864c-0.045-0.574-0.373-1.04-0.977-1.391c0.164-0.09,0.334-0.225,0.501-0.423 c0.316-0.372,0.487-0.935,0.538-1.808c0-1.361-0.548-2.411-1.584-3.037c-1.646-0.995-3.849-1.116-6.228-0.423 c-1.002,0.293-1.936,0.717-2.764,1.254c-0.892,0.554-1.766,1.383-2.598,2.464c-0.812,1.055-1.551,2.235-2.196,3.507 c-0.644,1.269-1.194,2.583-1.635,3.906c-0.446,1.338-0.735,2.599-0.861,3.763c-0.041,0.506-0.041,1.02,0,1.528 c0.045,0.531,0.138,0.986,0.303,1.418c0.165,0.329,0.44,0.637,0.841,0.938c0.347,0.259,0.719,0.489,1.105,0.683 c0.374,0.187,0.748,0.354,1.119,0.496c0.399,0.157,0.732,0.257,0.959,0.291c0.946,0.25,1.851,0.053,2.688-0.585 c0.716-0.548,1.368-1.22,1.935-1.998c0.48-0.659,0.904-1.326,1.263-1.99c0.014,0.068,0.028,0.137,0.044,0.205 c0.169,0.788,0.43,1.506,0.775,2.13c0.365,0.663,0.885,1.218,1.543,1.649c0.675,0.444,1.54,0.669,2.559,0.669c0,0,0.001,0,0.001,0 c1.749-0.006,3.319-0.742,4.641-2.316c0.375,0.412,0.807,0.784,1.286,1.109c0.598,0.407,1.241,0.723,1.909,0.938 c0.689,0.223,1.322,0.312,1.885,0.266c0.582-0.052,1.17-0.361,1.749-0.917c0.498-0.476,0.992-1.054,1.47-1.718 c0.355-0.495,0.678-1.006,0.965-1.524c0.087,0.474,0.21,0.924,0.364,1.343c0.226,0.608,0.558,1.157,0.985,1.628 c0.455,0.505,1.025,0.857,1.665,1.038c1.126,0.376,2.28,0.228,3.429-0.439c0.585-0.34,1.151-0.765,1.688-1.271 c0.362,0.379,0.856,0.715,1.476,1.002c0.858,0.399,1.548,0.655,2.122,0.787c0.55,0.116,1.084,0.094,1.594-0.062 c-0.038,0.022-0.075,0.045-0.112,0.067c-1.147,0.708-2.119,1.565-2.891,2.548c-0.768,0.975-1.379,2.059-1.815,3.221 c-0.436,1.163-0.679,2.306-0.72,3.464c0.042,0.678,0.16,1.344,0.351,1.98c0.201,0.67,0.51,1.263,0.918,1.764 c0.415,0.507,0.918,0.904,1.492,1.178c0.509,0.245,1.081,0.368,1.705,0.368c0.1,0,0.201-0.004,0.304-0.01 c2.025-0.132,3.809-1.42,5.301-3.826c1.325-2.14,2.517-4.951,3.55-8.366c0.248,0.079,0.538,0.168,0.87,0.265 c0.68,0.201,1.429,0.4,2.25,0.6c0.818,0.199,1.625,0.379,2.425,0.54c0.846,0.168,1.564,0.249,2.181,0.249c0.001,0,0.001,0,0.002,0 c1.761,0.039,3.362-0.158,4.764-0.591c1.482-0.458,2.615-1.274,3.373-2.431c0.301-0.472,0.512-0.888,0.638-1.259 c0.412,0.162,0.875,0.287,1.401,0.373c1.246,0.044,2.393-0.305,3.418-1.039c0.477-0.343,0.932-0.744,1.359-1.199 c0.015,0.023,0.03,0.045,0.045,0.067c0.728,1.048,1.901,1.735,3.475,2.039c1.668,0.352,3.129,0.121,4.34-0.686 c0.659-0.44,1.287-1.043,1.874-1.8c0.066,0.089,0.135,0.175,0.206,0.258c0.593,0.703,1.365,1.278,2.293,1.709 c1.742,0.81,4.372,0.945,7.174-0.036c1.305-0.455,2.584-1.178,3.801-2.147c1.209-0.962,2.329-2.207,3.33-3.698 c0.881-1.311,1.612-2.909,2.163-4.717c0.154-0.424,0.308-0.875,0.462-1.373c0.183-0.589,0.337-1.153,0.452-1.656l0.169-0.645 h0.866c0.113,0,0.234,0.004,0.36,0.012c-0.098,0.246-0.203,0.514-0.312,0.804C175.302,110.489,175.019,111.33,174.745,112.23z M84.995,109.081c-0.912,0.287-1.725,1.037-2.5,2.312l-3.714,6.604c-0.807,1.284-1.313,1.806-1.602,2.021 c-0.01-0.122-0.013-0.294,0.004-0.534c0.039-0.311,0.087-0.661,0.146-1.048c0.054-0.358,0.155-0.76,0.303-1.205 c0.233-0.735,0.527-1.57,0.875-2.48c0.351-0.914,0.742-1.824,1.164-2.707c0.424-0.887,0.874-1.737,1.337-2.528 c0.448-0.764,0.918-1.414,1.38-1.913c0.935-0.935,1.778-1.409,2.505-1.409c0.628,0,0.894,0.237,1.04,0.415 c0.261,0.32,0.388,0.651,0.388,1.013c0,0.457,0.148,0.859,0.427,1.165C86.144,108.805,85.557,108.904,84.995,109.081z M116.01,128.699c-0.344,1.187-0.735,2.298-1.159,3.303c-0.412,0.972-0.854,1.773-1.311,2.377 c-0.241,0.319-0.596,0.691-0.938,0.666c-0.091-0.008-0.365-0.033-0.696-0.482c-0.223-0.3-0.274-0.779-0.152-1.42 c0.008-0.039,0.011-0.08,0.011-0.12c0-0.954,0.244-1.899,0.725-2.807c0.504-0.953,1.088-1.782,1.734-2.464 c0.638-0.675,1.297-1.188,1.959-1.528c0.24-0.123,0.439-0.202,0.603-0.252C116.539,126.858,116.28,127.767,116.01,128.699z M117.914,120.416c-0.107,0.803-0.219,1.483-0.335,2.033c-0.862,0.152-1.669,0.392-2.415,0.718 c0.691-0.506,1.327-1.144,1.891-1.896c0.336-0.447,0.644-0.899,0.922-1.352C117.957,120.085,117.936,120.25,117.914,120.416z M136.318,121.236c0.142,0.32,0.322,0.618,0.537,0.889c-0.026,0.027-0.052,0.054-0.078,0.083 c-0.354,0.353-0.898,0.637-1.617,0.842c-0.783,0.225-1.676,0.376-2.654,0.451c-0.989,0.075-2.036,0.086-3.113,0.028 c-1.085-0.058-2.106-0.146-3.034-0.262c-0.937-0.117-1.758-0.244-2.444-0.378c-0.347-0.067-0.586-0.129-0.749-0.179 c0.045-0.229,0.091-0.474,0.137-0.735v-0.001l0.13-0.763c0.757,0.076,1.52-0.004,2.273-0.243c0.617-0.197,1.224-0.494,1.81-0.888 c0.463,0.393,0.987,0.699,1.562,0.908c0.671,0.246,1.33,0.36,1.961,0.335c0.756-0.027,1.32-0.283,1.677-0.762 c0.024-0.032,0.045-0.067,0.063-0.102l1.325-2.716c0.785-2.041,1.489-3.797,2.094-5.22c0.246-0.58,0.475-1.108,0.688-1.586 c-0.236,0.794-0.485,1.676-0.748,2.646c-0.327,1.205-0.514,2.258-0.554,3.127C135.499,118.419,135.746,119.941,136.318,121.236z M146.687,103.511c-0.164,0.491-0.31,1.043-0.434,1.642c-0.116,0.561-0.252,1.131-0.408,1.72l-0.063,0.253 c-0.354,1.576-0.685,3.24-0.983,4.944c-0.297,1.71-0.509,3.221-0.628,4.492l-0.015,0.202l-0.389,0.924 c-0.525,1.01-1.039,1.79-1.527,2.314c-0.55,0.589-0.869,0.653-0.981,0.653c-0.173,0-0.314-0.358-0.367-0.512 c-0.125-0.362-0.216-1.135,0.055-2.76c0.152-0.877,0.367-1.866,0.641-2.94c0.272-1.071,0.568-2.148,0.881-3.203 c0.311-1.049,0.635-2.032,0.964-2.921c0.323-0.875,0.622-1.59,0.902-2.152c0.311-0.704,0.13-1.235-0.077-1.557 c-0.237-0.368-0.597-0.681-1.071-0.932c-0.426-0.223-0.926-0.402-1.487-0.531c-0.556-0.129-1.123-0.194-1.685-0.194 c-0.662,0-1.29,0.102-1.869,0.302c-0.643,0.223-1.11,0.574-1.389,1.046c-0.338,0.431-0.7,1.025-1.104,1.815 c-0.392,0.763-0.806,1.631-1.23,2.578l-1.272,2.841c-0.108,0.241-0.214,0.479-0.318,0.711c0.22-0.985,0.434-1.902,0.642-2.746 c0.021-0.083,0.507-1.971,0.681-2.667c0.176-0.705,0.361-1.346,0.562-1.953c0.196-0.784,0.422-1.589,0.671-2.393 c0.235-0.759,0.462-1.518,0.699-2.339c0.58-0.334,1.141-0.577,1.67-0.724c1.256-0.347,2.675-0.349,4.152-0.075 c0.749,0.138,1.537,0.286,2.358,0.441c0.391,0.079,0.763,0.157,1.11,0.233c0.364,0.083,0.767,0.162,1.165,0.233l0.966,0.251 L146.687,103.511z M170.908,109.049c-0.094,0.524-0.22,1.096-0.374,1.699c-0.07,0.27-0.14,0.522-0.21,0.774l-0.052,0.198 c-0.904,2.447-2.071,4.368-3.467,5.71c-1.399,1.343-2.764,2.212-4.06,2.583c-1.003,0.113-3.1,0.074-3.501-0.745 c-0.42-0.858-0.593-1.748-0.533-2.669c0.074-0.486,0.187-0.996,0.338-1.519c0.08-0.281,0.207-0.555,0.379-0.817 c0.223,0.115,0.471,0.187,0.74,0.216c0.4,0.042,0.811,0.063,1.222,0.063c0.85,0,1.708-0.225,2.549-0.667 c0.807-0.424,1.552-0.995,2.213-1.697c0.649-0.692,1.202-1.467,1.641-2.304c0.451-0.858,0.723-1.733,0.811-2.607 c0.093-0.978-0.163-1.919-0.73-2.743c-0.275-0.492-0.727-0.858-1.343-1.088c-1.037-0.39-2.309-0.421-3.825-0.02 c-0.733,0.194-1.473,0.531-2.173,0.985c-0.996,0.581-1.92,1.317-2.746,2.184c-0.818,0.858-1.545,1.824-2.162,2.871 c-0.611,1.039-1.117,2.144-1.505,3.287c-0.39,1.149-0.63,2.319-0.713,3.468c-0.014,0.163-0.022,0.324-0.028,0.485l-0.041,0.084 c-0.049,0.102-0.097,0.205-0.158,0.316c-0.644,1.249-1.29,2.24-1.921,2.944c-0.754,0.843-1.171,0.961-1.318,0.972 c-0.215-0.01-0.384-0.374-0.466-0.607c-0.154-0.439-0.3-1.368-0.114-3.31c0.154-1.659,0.428-3.385,0.816-5.131 c0.385-1.737,0.819-3.394,1.289-4.924c0.465-1.512,0.927-2.839,1.373-3.944c0.329-0.817,0.601-1.451,0.813-1.893l1.156,0.122 c0.415,0.084,0.951,0.155,1.638,0.218c0.667,0.06,1.787,0.111,3.326,0.15c2.666,0.084,5.038-0.228,7.04-0.922 c0.861-0.299,1.624-0.647,2.287-1.043c-0.208,0.226-0.378,0.477-0.508,0.752c-0.375,0.795-0.564,1.664-0.564,2.583 c0,1.129,0.255,2.17,0.76,3.092c0.459,0.838,1.218,1.536,2.259,2.078C171.009,108.468,170.963,108.739,170.908,109.049z M161.278,111.066c0.039-0.125,0.151-0.386,0.471-0.866c0.339-0.509,0.739-1.023,1.189-1.529c0.446-0.502,0.907-0.945,1.37-1.316 c0.354-0.283,0.555-0.39,0.642-0.43c0.08,0.132,0.119,0.268,0.12,0.401c-0.032,0.345-0.166,0.74-0.399,1.173 c-0.255,0.472-0.557,0.912-0.898,1.306c-0.344,0.398-0.715,0.742-1.104,1.025c-0.32,0.233-0.612,0.35-0.866,0.35 C161.781,111.182,161.657,111.177,161.278,111.066z M171.598,102.2c0.001-0.004,0.002-0.007,0.003-0.007 c0.001,0,0.001,0.002,0.001,0.006C171.6,102.199,171.599,102.2,171.598,102.2z M171.788,103.185 c-0.097-0.249-0.159-0.5-0.185-0.746c0.111,0.207,0.198,0.444,0.257,0.707c0.027,0.119,0.047,0.237,0.063,0.352 C171.875,103.399,171.83,103.295,171.788,103.185z"></path> <path fill="#1D1D1B" d="M172.849,15.799C172.849,15.799,172.849,15.799,172.849,15.799c0.225,0.093,0.463,0.141,0.707,0.141 c0.313,0,0.623-0.081,0.893-0.232c0.178-0.099,4.385-2.46,5.886-5.79c1.722-3.815,0.532-8.366,0.48-8.56 c-0.138-0.507-0.487-0.932-0.959-1.168c-0.471-0.232-1.021-0.253-1.507-0.056c-0.174,0.07-4.282,1.763-6.296,5.764 c-1.727,3.429-0.329,8.487-0.269,8.699C171.939,15.143,172.327,15.581,172.849,15.799z M175.338,7.552 c0.576-1.144,1.44-2.034,2.251-2.681c0.028,1.112-0.095,2.406-0.605,3.537c-0.42,0.931-1.261,1.808-2.092,2.511 C174.82,9.827,174.864,8.493,175.338,7.552z"></path> <path fill="#1D1D1B" d="M178.932,17.416C178.932,17.417,178.932,17.417,178.932,17.416c0.285,0.492,0.77,0.819,1.329,0.898 c0.107,0.016,1.087,0.152,2.427,0.152c1.625,0,3.944-0.207,5.762-1.191c3.713-2.01,5.495-6.338,5.568-6.518 c0.2-0.487,0.181-1.038-0.054-1.51c-0.233-0.471-0.659-0.821-1.163-0.958c-0.18-0.051-4.459-1.202-8.503,0.771 c-3.438,1.675-5.403,6.552-5.484,6.758C178.605,16.343,178.648,16.927,178.932,17.416z M185.909,12.363 c1.15-0.559,2.378-0.744,3.42-0.768c-0.649,0.898-1.53,1.851-2.628,2.446c-0.896,0.485-2.097,0.673-3.184,0.729 C184.12,13.858,184.964,12.824,185.909,12.363z"></path> <path fill="#1D1D1B" d="M208.562,152.584c-3.298-1.776-8.146-0.645-8.689-0.51c-0.549,0.138-0.997,0.512-1.23,1.03 c-0.232,0.516-0.215,1.1,0.047,1.604c0.238,0.455,2.417,4.488,5.622,6.042c1.467,0.711,3.21,1.072,5.183,1.072 c1.829,0,3.208-0.317,3.361-0.353c0.512-0.123,0.947-0.46,1.195-0.925c0.247-0.464,0.283-1.014,0.099-1.506 C214.084,158.863,212.5,154.705,208.562,152.584z M205.917,157.442c-0.918-0.445-1.771-1.31-2.45-2.16 c1.096-0.044,2.427,0.041,3.351,0.539c1.129,0.608,1.995,1.498,2.62,2.328C208.328,158.146,207.039,157.987,205.917,157.442z"></path> <path fill="#1D1D1B" d="M213.055,108.472c-0.428-0.302-0.967-0.407-1.482-0.287c-0.183,0.043-4.51,1.098-7.104,4.73 c-2.176,3.047-1.664,8-1.598,8.556c0.067,0.563,0.384,1.055,0.868,1.35c0.289,0.177,0.62,0.27,0.958,0.27 c0.215,0,0.428-0.038,0.64-0.115c0.482-0.18,4.762-1.845,6.7-4.819c2.284-3.505,1.807-8.186,1.786-8.384 C213.764,109.25,213.485,108.775,213.055,108.472z M208.956,116.151c-0.557,0.855-1.523,1.594-2.451,2.16 c0.095-1.089,0.344-2.401,0.956-3.257c0.744-1.042,1.733-1.788,2.634-2.305C209.952,113.852,209.633,115.112,208.956,116.151z"></path> <path fill="#1D1D1B" d="M91.456,158.484C91.455,158.484,91.455,158.483,91.456,158.484c-0.291-0.279-0.611-0.547-0.956-0.801 c0.015-0.731-0.399-1.405-1.092-1.705c-0.582-0.25-1.176-0.49-1.796-0.724c2.713-1.92,4.392-5.462,4.472-5.634 c0.239-0.514,0.23-1.099-0.024-1.603c-0.255-0.507-0.72-0.862-1.273-0.975c-0.199-0.04-4.928-0.991-8.238,0.559 c-2.586,1.209-4.351,3.518-5.278,5.005c-1.09-0.162-2.195-0.294-3.358-0.403c-0.688-1.423-2.085-3.705-4.486-5.219 c-3.145-1.983-8.078-1.199-8.633-1.103c-0.558,0.099-1.031,0.442-1.298,0.943c-0.266,0.498-0.29,1.082-0.064,1.602 c0.036,0.081,0.739,1.681,1.967,3.348c-2.56-0.027-5.284-0.093-7.622-0.408c0.045-1.618-0.159-4.195-1.53-6.58 c-1.867-3.246-6.584-4.838-7.116-5.01c-0.532-0.17-1.127-0.086-1.588,0.226c-0.471,0.317-0.764,0.823-0.806,1.386 c-0.015,0.197-0.34,4.713,1.418,7.805c-2.495-0.717-4.914-1.533-7.22-2.435c0.617-1.628,1.147-3.903,0.733-6.378 c-0.632-3.778-4.751-7.04-4.924-7.176c-0.442-0.347-1.028-0.477-1.567-0.341c-0.553,0.133-1.004,0.505-1.238,1.019 c-0.085,0.186-2.081,4.584-1.327,8.147c0.072,0.341,0.166,0.685,0.282,1.032c-1.517-0.811-2.985-1.664-4.383-2.55 c0.679-1.555,1.495-4.17,1.011-7.065c-0.619-3.696-4.484-6.831-4.924-7.178c-0.445-0.348-1.033-0.472-1.565-0.34 c-0.551,0.132-1.003,0.504-1.24,1.02c-0.079,0.171-1.796,3.956-1.452,7.344c-0.925-0.854-1.633-1.574-2.133-2.111 c-0.157-0.907-0.978-4.703-4.045-7.341c-2.611-2.249-7.037-2.396-8.377-2.365c-0.566,0.016-1.084,0.287-1.423,0.741 c-0.337,0.455-0.447,1.029-0.299,1.578c0.135,0.495,1.399,4.903,4.194,7.109c2.303,1.817,5.256,2.338,6.97,2.483 c0.169,0.188,0.379,0.416,0.628,0.678c-2.356,0.506-4.308,1.558-4.404,1.61c-0.497,0.271-0.838,0.746-0.934,1.305 c-0.095,0.558,0.067,1.119,0.447,1.54c0.344,0.381,3.458,3.74,6.953,4.445c0.623,0.126,1.286,0.191,1.97,0.191 c2.285,0,4.365-0.7,5.568-1.205c2.475,1.636,5.138,3.157,7.937,4.532c-1.188,0.6-2.222,1.353-3.085,2.248 c-2.599,2.696-2.817,7.671-2.834,8.232c-0.015,0.566,0.225,1.098,0.661,1.462c0.431,0.358,1.048,0.498,1.555,0.386 c0.199-0.041,4.914-1.049,7.336-3.786c1.564-1.767,2.322-3.994,2.689-5.771c2.007,0.776,4.1,1.492,6.246,2.138 c-2.263,1.813-3.747,4.458-3.818,4.587c-0.275,0.495-0.308,1.079-0.088,1.603c0.22,0.522,0.659,0.908,1.204,1.059 c0.226,0.063,2.273,0.611,4.604,0.611c1.401,0,2.629-0.2,3.649-0.593c2.689-1.035,4.621-3.243,5.646-4.665 c3.004,0.417,6.459,0.445,9.806,0.471c-2.123,2.376-2.986,5.933-3.091,6.397c-0.123,0.552,0.01,1.12,0.368,1.563 c0.351,0.431,0.871,0.677,1.453,0.677c0.204-0.004,5.029-0.094,7.925-2.312c2.211-1.694,3.436-4.276,4.012-5.83 c0.047-0.024,0.092-0.05,0.137-0.077c1.634,0.158,3.165,0.369,4.644,0.637c0.296,0.07,0.673,0.149,1.086,0.211 c0.688,0.141,1.388,0.301,2.085,0.478c0.059,0.792,0.492,4.777,3.311,7.727c2.649,2.775,7.886,3.155,8.109,3.17 c0.014,0.001,0.109,0.004,0.123,0.004c0.519,0,1.015-0.22,1.362-0.604c0.38-0.42,0.545-0.981,0.451-1.541 C94.851,165.461,94.02,160.949,91.456,158.484z M6.536,129.016c-0.802-0.632-1.45-1.661-1.93-2.637 c1.076,0.194,2.359,0.559,3.158,1.246c0.973,0.837,1.627,1.892,2.06,2.837C8.741,130.223,7.517,129.791,6.536,129.016z M14.647,140.362C14.647,140.362,14.646,140.362,14.647,140.362c-1.002-0.202-2.045-0.827-2.915-1.48 c1.048-0.312,2.358-0.567,3.379-0.315c0.237,0.059,0.484,0.138,0.768,0.247c0.584,0.487,1.197,0.979,1.831,1.467 C16.768,140.478,15.679,140.574,14.647,140.362z M21.663,137.546c-0.68-0.881-1.345-1.997-1.602-3.21 c-0.211-0.999-0.051-2.203,0.204-3.261c0.703,0.838,1.455,1.941,1.629,2.979C22.106,135.317,21.935,136.545,21.663,137.546z M30.272,153.589c-0.676,0.763-1.737,1.351-2.737,1.776c0.255-1.064,0.692-2.326,1.419-3.081c0.889-0.922,1.977-1.515,2.943-1.895 C31.594,151.46,31.095,152.659,30.272,153.589z M33.81,144.484c-0.678-0.877-1.342-1.992-1.601-3.215 c-0.211-0.998-0.051-2.201,0.203-3.257c0.704,0.839,1.457,1.942,1.63,2.975C34.254,142.252,34.082,143.482,33.81,144.484z M46.19,156.229c-0.947,0.365-2.161,0.397-3.248,0.314c0.717-0.827,1.686-1.745,2.678-2.079c0.862-0.291,1.83-0.414,2.873-0.368 c0.18,0.04,0.36,0.08,0.542,0.119C48.293,154.989,47.321,155.792,46.19,156.229z M47.439,147.522 c-0.546-0.862-0.815-2.047-0.945-3.126c0.951,0.54,2.04,1.311,2.565,2.224c0.639,1.112,0.906,2.323,1.001,3.358 C49.119,149.391,48.107,148.576,47.439,147.522z M67.466,150.095c0.721,0.455,1.379,1.063,1.964,1.816 c-0.804-0.032-1.661-0.056-2.616-0.075c-0.12-0.057-0.24-0.116-0.358-0.185c-0.885-0.507-1.676-1.427-2.295-2.319 C65.256,149.365,66.581,149.538,67.466,150.095z M67.382,158.872C67.381,158.872,67.381,158.872,67.382,158.872 c-0.81,0.621-1.966,0.995-3.03,1.22c0.453-0.995,1.124-2.148,1.987-2.753c0.732-0.513,1.607-0.9,2.6-1.151 c0.179,0.021,0.36,0.04,0.544,0.055C68.999,157.154,68.308,158.161,67.382,158.872z M84.798,152.653 c-1.185,0.494-2.418,0.605-3.459,0.568c0.702-0.86,1.638-1.761,2.768-2.29c0.779-0.364,1.895-0.564,3.222-0.542 C86.673,151.264,85.77,152.247,84.798,152.653z M87.55,162.398c-0.884-0.926-1.432-2.037-1.771-3.018 c1.056,0.347,2.234,0.896,3.128,1.755c0.737,0.708,1.281,1.795,1.664,2.812C89.519,163.649,88.278,163.159,87.55,162.398z"></path> <path fill="#1D1D1B" d="M32.127,17.455c-0.001,0.001-0.002,0.001-0.003,0.002c-0.432,0.368-0.668,0.902-0.648,1.467 c0.02,0.566,0.293,1.083,0.75,1.418c0.163,0.12,4.036,2.934,7.717,2.934c4.185-0.028,7.826-3.009,7.979-3.136 c0.405-0.337,0.647-0.832,0.662-1.357c0.016-0.526-0.194-1.036-0.577-1.395c-0.136-0.129-3.388-3.156-7.866-3.317 C36.363,13.921,32.297,17.311,32.127,17.455z M39.919,19.598c-0.01-0.002-0.03,0.001-0.045,0.001 c-0.855,0-1.915-0.292-3.105-0.852c1.234-0.66,2.408-1.038,3.243-1.001c1.278,0.046,2.447,0.46,3.374,0.927 C42.387,19.161,41.16,19.59,39.919,19.598z"></path> <path fill="#1D1D1B" d="M9.862,107.976c-0.494-0.266-1.095-0.289-1.603-0.063c-0.519,0.227-0.899,0.672-1.041,1.218 c-0.051,0.198-1.254,4.871,0.108,8.255c1.565,3.885,5.674,6.173,5.847,6.268c0.269,0.148,0.574,0.226,0.884,0.226 c0.215,0,0.426-0.037,0.622-0.109c0.496-0.178,0.892-0.56,1.087-1.051c0.069-0.175,1.678-4.333,0.193-8.532 C14.677,110.572,10.075,108.089,9.862,107.976z M12.871,118.899c-0.82-0.748-1.669-1.73-2.134-2.888 c-0.381-0.945-0.433-2.158-0.366-3.242c0.839,0.703,1.772,1.658,2.122,2.646C12.92,116.624,12.965,117.864,12.871,118.899z"></path> <path fill="#1D1D1B" d="M17.344,152.066c0.33-0.408,0.471-0.94,0.384-1.46c-0.087-0.519-0.393-0.977-0.84-1.256 c-0.177-0.11-3.947-2.424-8.359-1.715c-3.692,0.599-6.853,4.449-7.202,4.887c-0.352,0.444-0.479,1.015-0.348,1.567 c0.131,0.55,0.5,1.003,1.017,1.245c0.341,0.156,3.419,1.529,6.442,1.529c0.602,0,1.173-0.055,1.696-0.162 C14.249,155.851,17.22,152.219,17.344,152.066z M9.39,153.098c-1.001,0.208-2.204,0.039-3.259-0.221 c0.842-0.699,1.948-1.445,2.986-1.614c1.266-0.203,2.494-0.028,3.496,0.251C11.731,152.188,10.613,152.846,9.39,153.098z"></path> <path fill="#1D1D1B" d="M100.39,150.685C100.39,150.685,100.389,150.685,100.39,150.685c-3.885-0.204-8.029,3.23-8.069,3.263 c-0.437,0.36-0.681,0.89-0.67,1.458c0.012,0.566,0.278,1.087,0.728,1.428c0.162,0.123,4.015,3.019,7.749,3.051 c4.162,0,7.795-2.89,7.948-3.013c0.41-0.33,0.658-0.821,0.683-1.349c0.023-0.526-0.18-1.038-0.558-1.404 C108.067,153.989,104.832,150.913,100.39,150.685z M100.217,156.209c-0.045,0-0.089-0.004-0.134-0.002 c-1.019-0.009-2.158-0.423-3.134-0.898c0.93-0.479,2.196-1,3.252-0.953c1.282,0.065,2.447,0.499,3.369,0.982 C102.363,155.917,101.239,156.209,100.217,156.209z"></path> <path fill="#1D1D1B" d="M32.892,12.062c2.436,1.567,5.426,1.801,6.991,1.801c0.817,0,1.348-0.06,1.404-0.067 c0.522-0.06,0.995-0.342,1.297-0.775c0.301-0.432,0.402-0.973,0.278-1.483c-0.044-0.183-1.119-4.498-4.776-7.075 c-3.046-2.148-8.008-1.614-8.566-1.546c-0.563,0.072-1.053,0.392-1.344,0.875c-0.293,0.486-0.346,1.068-0.146,1.596 C28.102,5.581,29.812,10.083,32.892,12.062z M35.968,7.468c1.047,0.739,1.8,1.723,2.321,2.621 c-1.104-0.137-2.366-0.447-3.409-1.118c-0.858-0.552-1.602-1.514-2.175-2.438C33.795,6.622,35.108,6.863,35.968,7.468z"></path> <path fill="#1D1D1B" d="M50.616,28.436c0.001,0,0.002,0,0.003,0c0.116,0.018,0.74,0.107,1.653,0.107 c1.756,0,4.346-0.313,6.708-1.808c2.244-1.418,3.607-4.27,4.252-5.962c0.776-0.581,2.125-1.499,4.022-2.467 c-0.095,0.178-0.182,0.356-0.258,0.534c-1.669,3.846-0.413,8.374-0.359,8.565c0.145,0.508,0.5,0.929,0.973,1.154 c0.468,0.225,1.031,0.239,1.511,0.036c0.174-0.074,4.265-1.845,6.212-5.85c1.192-2.455,0.797-5.706,0.439-7.478 c2.081-0.466,4.222-0.767,6.375-0.898c0.967-0.058,1.939-0.083,2.91-0.077c-3.034,2.384-4.237,6.297-4.37,6.758 c-0.144,0.507-0.063,1.051,0.221,1.495c0.284,0.442,0.744,0.743,1.266,0.825c0.116,0.018,0.74,0.107,1.653,0.107 c1.757,0,4.347-0.313,6.709-1.808c2.348-1.483,3.73-4.526,4.347-6.216c1.982,0.437,4.086,1.008,6.503,1.764 c-1.1,0.716-1.968,1.499-2.589,2.334c-2.501,3.363-2.31,8.06-2.301,8.26c0.026,0.526,0.277,1.017,0.685,1.344 c0.406,0.328,0.938,0.47,1.464,0.379c0.185-0.032,4.572-0.823,7.381-4.284c1.325-1.632,1.847-3.926,2.039-5.804 c1.267,0.433,2.555,0.87,3.844,1.289l0.263,0.105c0.1,0.039,0.188,0.049,0.154,0.034c2.174,0.705,4.11,1.284,5.984,1.786 c-2.999,2.291-4.355,6.051-4.416,6.224c-0.174,0.495-0.128,1.044,0.129,1.506c0.256,0.458,0.697,0.787,1.213,0.9 c0.109,0.024,1.109,0.233,2.525,0.233c1.523,0,3.787-0.248,5.925-1.424c2.192-1.207,3.681-3.738,4.466-5.398 c3.295,0.471,6.546,0.719,9.9,0.759c-0.481,1.679-0.96,4.178-0.426,6.346c1.01,4.095,4.751,6.912,4.907,7.028 c0.315,0.237,0.706,0.368,1.102,0.368c0.127,0,0.253-0.013,0.372-0.038c0.514-0.107,0.961-0.43,1.224-0.888 c0.076-0.134,1.721-3.065,1.592-6.679c0.707,0.17,1.478,0.256,2.303,0.256c2.551,0,4.92-0.775,5.183-0.864 c0.536-0.183,0.951-0.594,1.14-1.129c0.188-0.534,0.122-1.115-0.181-1.594c-0.061-0.096-1.284-2.008-3.11-3.63 c2.164-0.354,3.77-0.8,5.213-1.243c0.928,0.925,3.524,3.194,7.079,3.696c0.309,0.044,0.633,0.066,0.965,0.066 c3.448,0,6.971-2.333,7.362-2.599c0.468-0.32,0.758-0.828,0.796-1.393c0.039-0.566-0.18-1.108-0.599-1.487 c-0.142-0.129-3.298-2.965-6.677-3.619c1.8-3.29,0.813-8.242,0.769-8.456c-0.114-0.555-0.47-1.019-0.977-1.274 c-0.505-0.251-1.088-0.261-1.606-0.021c-0.465,0.219-4.595,2.237-6.278,5.356c-1.092,2.025-1.328,4.316-1.306,6.029 c-3.58,1.129-6.525,1.936-16.713,2.092c-1.738,0.029-3.484-0.006-5.208-0.098c1.093-0.921,2.206-2.097,2.865-3.452 c1.842-3.787,0.771-8.351,0.726-8.541c-0.122-0.512-0.459-0.948-0.924-1.196c-0.465-0.247-1.016-0.283-1.506-0.099 c-0.176,0.066-4.337,1.65-6.459,5.58c-1.223,2.266-1.059,5.314-0.808,7.121c-0.241-0.034-0.481-0.068-0.72-0.104 c-0.264-0.19-0.57-0.305-0.894-0.336c-0.024-0.003-0.577-0.054-1.429-0.054c-0.01,0-0.02,0-0.031,0 c-3.455-0.632-6.979-1.528-11.048-2.811c0.044-1.74-0.11-4.517-1.291-6.608c-2.057-3.643-6.432-5.377-6.616-5.449 c-0.49-0.192-1.042-0.162-1.511,0.081c-0.468,0.241-0.81,0.673-0.938,1.183c-0.042,0.168-0.931,3.822,0.48,7.487 c-7.001-2.323-14.082-4.24-22.564-3.806C81.88,8.92,80.969,6.21,79.206,4.468c-2.998-2.958-7.663-3.407-7.854-3.424 c-0.519-0.056-1.044,0.126-1.433,0.491c-0.383,0.361-0.593,0.869-0.577,1.395c0.006,0.187,0.172,4.636,3.215,7.906 c0.368,0.396,0.807,0.764,1.313,1.101c-3.054,0.762-5.918,1.837-8.541,3.205c-1.03-1.175-3.398-3.58-6.091-4.336 c-3.913-1.093-8.066,0.606-8.536,0.807c-0.481,0.212-0.85,0.621-1.011,1.121s-0.099,1.048,0.169,1.498 c0.074,0.125,1.645,2.761,4.62,4.46c-0.185,0.107-0.361,0.218-0.529,0.335c-3.364,2.333-4.678,6.607-4.818,7.09 c-0.144,0.507-0.063,1.051,0.221,1.495C49.637,28.053,50.097,28.354,50.616,28.436z M165.248,21.611 c1.016,0.099,2.116,0.615,3.047,1.176c-1.012,0.42-2.288,0.807-3.331,0.656c-1.142-0.161-2.162-0.614-2.964-1.09 c0.268-0.164,0.532-0.338,0.791-0.521C163.679,21.611,164.503,21.537,165.248,21.611z M161.443,15.404 c0.485-0.899,1.386-1.714,2.264-2.355c-0.006,1.094-0.145,2.421-0.684,3.325c-0.423,0.709-1.004,1.373-1.729,1.976 c-0.235,0.065-0.463,0.13-0.686,0.194C160.701,17.324,160.986,16.25,161.443,15.404z M147.836,26.143 c0.954,0.368,1.878,1.159,2.624,1.948c-1.084,0.134-2.419,0.164-3.386-0.257l0-0.001c-0.68-0.295-1.343-0.724-1.972-1.275 c-0.195-0.276-0.407-0.555-0.636-0.833C145.525,25.656,146.745,25.723,147.836,26.143z M141.249,27.867 c0.337,0.4,0.693,0.778,1.066,1.13c0.372,0.582,0.608,1.114,0.703,1.583c0.254,1.258,0.123,2.492-0.115,3.504 c-0.707-0.855-1.408-1.948-1.707-3.161C140.966,29.997,141.057,28.878,141.249,27.867z M132.917,15.719 c0.609-1.127,1.498-1.992,2.327-2.615c-0.004,1.112-0.164,2.402-0.707,3.518c-0.446,0.918-1.313,1.77-2.163,2.449 C132.334,17.978,132.417,16.645,132.917,15.719z M121.039,25.239c0.872-0.529,2.062-0.777,3.144-0.886 c-0.558,0.94-1.349,2.015-2.272,2.523c-1.157,0.637-2.402,0.869-3.378,0.94C119.138,26.885,119.972,25.887,121.039,25.239z M110.259,12.988c0.501,0.888,0.711,2.083,0.787,3.166c-0.924-0.588-1.974-1.412-2.45-2.346c-0.582-1.142-0.788-2.365-0.831-3.405 C108.676,11.037,109.645,11.902,110.259,12.988z M104.326,19.739c-0.163,1.082-0.492,2.376-1.155,3.192v0.001 c-0.808,0.994-1.842,1.679-2.772,2.138c0.211-1.093,0.607-2.33,1.347-3.326C102.355,20.924,103.364,20.248,104.326,19.739z M87.6,16.98c0.84-0.582,2.013-0.901,3.085-1.075c-0.499,0.972-1.224,2.093-2.115,2.654c0,0.001,0,0.001,0,0.001 c-1.084,0.685-2.284,1.003-3.314,1.14C85.804,18.736,86.575,17.691,87.6,16.98z M73.515,5.284c1.05,0.36,2.219,0.925,3.107,1.8 c0.726,0.717,1.256,1.811,1.626,2.835c-1.048-0.312-2.283-0.817-3.001-1.587C74.375,7.393,73.841,6.272,73.515,5.284z M70.368,20.304c0.406-0.936,1.234-1.824,2.053-2.537c0.087,1.092,0.062,2.427-0.396,3.37c-0.559,1.151-1.41,2.053-2.211,2.711 C69.77,22.736,69.874,21.441,70.368,20.304z M58.245,14.346c0.983,0.275,1.976,0.976,2.795,1.692 c-1.068,0.234-2.393,0.392-3.394,0.063c-1.22-0.4-2.23-1.121-2.992-1.827C55.745,14.079,57.041,14.008,58.245,14.346z M56.046,22.046c0.709-0.491,1.764-0.858,3.079-1.072c-0.654,1.268-1.393,2.2-2.11,2.653c-1.084,0.685-2.283,1.002-3.313,1.14 C54.249,23.802,55.021,22.758,56.046,22.046z"></path> <path fill="#1D1D1B" d="M216.647,125.413c-0.329-0.462-0.842-0.742-1.406-0.77c-0.222-0.009-5.464-0.247-8.422,2.2 c-3.073,2.543-3.987,6.248-4.183,7.254c-0.51,0.526-1.233,1.235-2.18,2.075c0.41-3.377-1.23-7.196-1.306-7.369 c-0.225-0.519-0.669-0.9-1.216-1.044c-0.55-0.146-1.123-0.033-1.576,0.31c-0.178,0.133-4.358,3.322-5.063,7.077 c-0.542,2.885,0.222,5.517,0.871,7.084c-1.416,0.858-2.9,1.683-4.432,2.463c0.123-0.344,0.223-0.685,0.302-1.025 c0.823-3.544-1.085-7.985-1.166-8.171c-0.225-0.519-0.669-0.9-1.217-1.044c-0.55-0.146-1.122-0.032-1.577,0.311 c-0.446,0.337-4.373,3.406-5.063,7.077c-0.463,2.467,0.023,4.751,0.607,6.392c-2.326,0.857-4.762,1.625-7.266,2.292 c1.807-3.042,1.583-7.575,1.572-7.773c-0.03-0.566-0.314-1.078-0.778-1.404c-0.461-0.323-1.055-0.42-1.582-0.258 c-0.213,0.064-5.241,1.587-7.216,4.87c-1.417,2.357-1.672,4.93-1.66,6.548c-2.342,0.269-5.066,0.285-7.628,0.258 c1.21-1.576,1.937-3.103,2.033-3.309c0.237-0.514,0.225-1.099-0.033-1.603c-0.257-0.506-0.724-0.858-1.276-0.968 c-0.218-0.045-5.364-1.056-8.656,0.932c-2.429,1.466-3.872,3.72-4.588,5.13c-3.496,0.257-6.664,0.757-9.657,1.524 c-0.558-0.623-3.309-3.488-7.311-4.117c-3.795-0.591-8.181,2.281-8.364,2.402c-0.474,0.312-0.772,0.816-0.819,1.379 c-0.048,0.566,0.162,1.112,0.575,1.497c0.149,0.14,3.686,3.423,7.311,3.835c0.071,0.008,0.144,0.015,0.216,0.022 c-1.614,2.124-2.415,4.639-2.515,4.965c-0.164,0.542-0.072,1.119,0.253,1.584c0.324,0.465,0.835,0.75,1.398,0.783 c0.045,0.003,0.319,0.018,0.752,0.018c1.742,0,5.01-0.226,7.323-1.743c3.437-2.253,4.85-6.487,5-6.965 c0.077-0.244,0.1-0.5,0.072-0.749c1.867-0.349,3.786-0.597,5.837-0.756c0.044,0.029,0.09,0.057,0.137,0.082 c0.545,1.565,1.718,4.169,3.896,5.908c2.863,2.283,7.676,2.461,7.942,2.469c0.542,0,1.054-0.238,1.403-0.651 c0.366-0.431,0.511-0.998,0.398-1.555c-0.095-0.463-0.878-4.019-2.975-6.456c3.349,0.038,6.806,0.08,9.824-0.279 c0.997,1.443,2.885,3.689,5.554,4.777c1.087,0.442,2.411,0.667,3.935,0.667c2.209,0,4.109-0.47,4.32-0.523 c0.549-0.142,0.995-0.52,1.222-1.037c0.23-0.518,0.209-1.104-0.057-1.606c-0.175-0.328-1.575-2.868-3.726-4.659 c2.157-0.602,4.264-1.278,6.285-2.014c0.332,1.784,1.047,4.027,2.575,5.823c2.311,2.718,6.759,3.815,7.26,3.931 c0.534,0.124,1.129-0.01,1.562-0.357c0.442-0.354,0.693-0.882,0.689-1.449c-0.004-0.558-0.119-5.534-2.67-8.284 c-0.845-0.913-1.864-1.686-3.041-2.309c2.824-1.319,5.517-2.787,8.025-4.376c1.239,0.55,3.392,1.317,5.761,1.317 c0.605,0,1.196-0.051,1.755-0.153c3.512-0.637,6.69-3.936,7.041-4.31c0.388-0.414,0.561-0.972,0.476-1.532 c-0.085-0.559-0.416-1.041-0.909-1.322c-0.095-0.054-2.029-1.143-4.372-1.696c0.253-0.257,0.468-0.48,0.642-0.666 c1.718-0.113,4.682-0.577,7.017-2.346c2.922-2.213,4.277-6.833,4.333-7.026C217.074,126.452,216.977,125.875,216.647,125.413z M124.692,155.815c-1.013-0.116-2.104-0.648-3.025-1.223c1.019-0.401,2.304-0.769,3.338-0.605c1.267,0.199,2.378,0.75,3.244,1.325 C127.204,155.677,125.938,155.954,124.692,155.815z M129.688,162.022c-0.854,0.56-2.033,0.849-3.108,0.995 c0.526-0.961,1.279-2.063,2.179-2.6c1.1-0.655,2.306-0.942,3.338-1.054C131.523,160.316,130.725,161.342,129.688,162.022z M148.941,159.743c-0.914-0.73-1.585-1.752-2.05-2.671c0.183-0.012,0.367-0.028,0.552-0.046c0.982,0.271,1.847,0.676,2.573,1.205 c0.845,0.618,1.492,1.783,1.926,2.787C150.938,160.779,149.742,160.381,148.941,159.743z M150.009,152.541 c-0.118,0.065-0.239,0.123-0.362,0.177c-0.961,0-1.819,0.008-2.622,0.024c0.598-0.738,1.27-1.333,2.005-1.776 c0.894-0.54,2.219-0.686,3.314-0.699C151.736,151.101,150.908,152.048,150.009,152.541z M167.501,147.853 c0.538-0.896,1.642-1.645,2.604-2.167c-0.148,1.021-0.437,2.246-1.003,3.103c-0.685,1.035-1.713,1.828-2.668,2.398 C166.55,150.155,166.841,148.95,167.501,147.853z M170.181,157.517c-1.116-0.455-2.073-1.278-2.802-2.071 c0.188-0.037,0.375-0.075,0.561-0.112c1.034-0.028,1.99,0.123,2.846,0.429c0.985,0.354,1.934,1.289,2.634,2.13 C172.39,157.949,171.13,157.905,170.181,157.517z M184.454,142.836c-0.281,1.211-0.971,2.315-1.669,3.183 c-0.251-1.004-0.396-2.235-0.158-3.501c0.194-1.028,0.966-2.114,1.686-2.939C184.529,140.587,184.685,141.837,184.454,142.836z M187.492,153.912c0.712,0.768,1.124,2.038,1.358,3.109c-0.991-0.444-2.041-1.054-2.702-1.831 c-0.804-0.945-1.28-2.154-1.562-3.229C185.545,152.359,186.621,152.973,187.492,153.912z M196.734,136.143 c-0.281,1.21-0.97,2.314-1.669,3.183c-0.251-1.004-0.396-2.235-0.158-3.501c0.194-1.028,0.966-2.114,1.685-2.939 C196.81,133.895,196.966,135.144,196.734,136.143z M204.965,140.854c-0.84,0.599-1.926,1.238-2.935,1.42 c-1.036,0.191-2.124,0.071-3.063-0.142c0.638-0.471,1.26-0.95,1.859-1.43c0.288-0.103,0.536-0.177,0.774-0.231 C202.619,140.241,203.922,140.519,204.965,140.854z M210.363,131.09c-0.989,0.749-2.222,1.156-3.312,1.377 c0.451-0.935,1.125-1.974,2.111-2.791c0.807-0.667,2.096-1.007,3.176-1.18C211.859,129.411,211.18,130.471,210.363,131.09z"></path> </g> </g> </svg> 