<?xml version="1.0" encoding="utf-8"?>
<!-- Generator: Adobe Illustrator 21.1.0, SVG Export Plug-In . SVG Version: 6.00 Build 0)  -->
<svg version="1.1" id="Layer_1" xmlns="http://www.w3.org/2000/svg" xmlns:xlink="http://www.w3.org/1999/xlink" x="0px" y="0px"
	 viewBox="0 0 240.56 148.38" style="enable-background:new 0 0 240.56 148.38;" xml:space="preserve">
<style type="text/css">
	.st0{display:none;}
	.st1{display:inline;fill:#D1D0C6;}
	.st2{fill:#1D1D1B;}
	.st3{fill:none;stroke:#000000;stroke-width:4.3937;stroke-linecap:round;stroke-linejoin:round;stroke-miterlimit:10;}
</style>
<g id="Layer_2" class="st0">
</g>
<path d="M19.15,50.19c-0.46,0-0.92-0.16-1.3-0.48c-1.37-1.17-13.42-11.67-14.72-19.4c-0.44-2.62-0.06-5.15,1.07-7.13
	c2.3-4,7.77-5.54,11.93-3.37c1.19,0.62,2.21,1.5,3.02,2.57c0.81-1.07,1.83-1.95,3.02-2.57l0,0c4.17-2.17,9.63-0.62,11.93,3.37
	c1.14,1.97,1.52,4.51,1.07,7.13c-1.31,7.73-13.35,18.23-14.72,19.4C20.08,50.03,19.61,50.19,19.15,50.19z M12.07,22.83
	c-1.76,0-3.55,0.87-4.4,2.35c-0.67,1.17-0.89,2.76-0.6,4.47c0.81,4.77,8.09,12.25,12.08,15.89c3.99-3.64,11.28-11.12,12.08-15.89
	c0.29-1.71,0.08-3.3-0.6-4.47c-1.22-2.12-4.38-2.99-6.63-1.82l0,0c-1.61,0.84-2.74,2.69-2.87,4.72c-0.07,1.05-0.94,1.87-1.99,1.87
	c-1.05,0-1.93-0.82-1.99-1.87c-0.13-2.03-1.26-3.88-2.87-4.72C13.61,23,12.84,22.83,12.07,22.83z"/>
<path d="M61.53,32.54c-0.46,0-0.92-0.16-1.3-0.48c-1.37-1.17-13.42-11.67-14.72-19.4c-0.44-2.62-0.06-5.15,1.07-7.13
	c2.3-4,7.76-5.54,11.93-3.37c1.19,0.62,2.21,1.5,3.02,2.57c0.81-1.07,1.83-1.95,3.02-2.57v0c4.17-2.17,9.63-0.62,11.93,3.37
	c1.14,1.97,1.52,4.51,1.07,7.13c-1.31,7.73-13.35,18.23-14.72,19.4C62.46,32.38,61.99,32.54,61.53,32.54z M54.44,5.18
	c-1.76,0-3.55,0.87-4.4,2.35c-0.67,1.17-0.89,2.76-0.6,4.47c0.81,4.77,8.09,12.25,12.08,15.89c3.99-3.64,11.28-11.12,12.08-15.89
	c0.29-1.71,0.08-3.3-0.6-4.47c-1.22-2.12-4.38-2.99-6.63-1.82c-1.61,0.84-2.74,2.69-2.87,4.72c-0.07,1.05-0.94,1.87-1.99,1.87l0,0
	c-1.05,0-1.93-0.82-1.99-1.87c-0.13-2.02-1.25-3.88-2.87-4.72C55.99,5.34,55.22,5.18,54.44,5.18z"/>
<path d="M184.08,42.46c-0.46,0-0.93-0.16-1.3-0.48c-1.37-1.17-13.42-11.67-14.72-19.4c-0.44-2.62-0.06-5.15,1.07-7.13
	c2.3-4,7.77-5.54,11.93-3.37c1.19,0.62,2.21,1.5,3.02,2.57c0.81-1.07,1.83-1.95,3.02-2.57c0,0,0,0,0,0
	c4.16-2.17,9.63-0.63,11.93,3.37c1.14,1.97,1.52,4.5,1.08,7.13c-1.31,7.73-13.35,18.23-14.72,19.4
	C185,42.3,184.54,42.46,184.08,42.46z M176.99,15.1c-1.76,0-3.55,0.87-4.4,2.35c-0.67,1.17-0.89,2.76-0.6,4.47
	c0.81,4.77,8.09,12.25,12.08,15.89c3.99-3.64,11.28-11.12,12.08-15.89c0.29-1.71,0.08-3.3-0.6-4.47c-1.22-2.12-4.38-2.99-6.63-1.82
	c-1.61,0.84-2.74,2.69-2.87,4.72c-0.07,1.05-0.94,1.87-1.99,1.87s-1.93-0.82-1.99-1.87c-0.13-2.02-1.26-3.88-2.87-4.72
	C178.53,15.27,177.76,15.1,176.99,15.1z"/>
<path d="M140.27,36.32c-0.46,0-0.93-0.16-1.3-0.48c-1.37-1.17-13.42-11.67-14.72-19.4c-0.44-2.62-0.06-5.15,1.08-7.13
	c2.3-4,7.77-5.54,11.93-3.37c1.19,0.62,2.21,1.5,3.02,2.57c0.81-1.07,1.83-1.95,3.02-2.57l0,0c4.17-2.17,9.63-0.63,11.93,3.37
	c1.14,1.97,1.52,4.51,1.07,7.13c-1.31,7.73-13.35,18.23-14.72,19.4C141.19,36.16,140.73,36.32,140.27,36.32z M133.18,8.96
	c-1.76,0-3.55,0.87-4.4,2.35c-0.67,1.17-0.89,2.76-0.6,4.47c0.81,4.77,8.09,12.24,12.08,15.89c3.99-3.64,11.28-11.12,12.08-15.89
	c0.29-1.71,0.08-3.3-0.6-4.47c-1.22-2.12-4.38-2.99-6.62-1.82l0,0c-1.61,0.84-2.74,2.69-2.87,4.72c-0.07,1.05-0.94,1.87-1.99,1.87
	s-1.93-0.82-1.99-1.87c-0.13-2.03-1.26-3.88-2.87-4.72C134.72,9.12,133.96,8.96,133.18,8.96z"/>
<path d="M211.1,149.69h-23.19c-1.21,0-2.2-0.98-2.2-2.2s0.98-2.2,2.2-2.2h23.19c1.21,0,2.2,0.98,2.2,2.2S212.31,149.69,211.1,149.69
	z"/>
<path d="M58.43,149.69H37.82c-1.21,0-2.2-0.98-2.2-2.2s0.98-2.2,2.2-2.2h20.62c1.21,0,2.2,0.98,2.2,2.2S59.65,149.69,58.43,149.69z"
	/>
<path d="M238.87,47.35c-2.61-3.47-7.7-5.55-15.14-6.18c-6.53-0.55-12.21,1.08-15.99,4.58c-1.13,1.05-2.11,2.38-2.74,3.83
	c-3.67-2.23-8.35-3.57-14.88-3.24c-0.01,0-0.01,0-0.02,0c-0.08,0-0.81-0.01-1.84,0.14c-2.17,0.2-4.52,0.57-7.1,1.15
	c-8.99,0.31-14.97,2.21-19.17,5.03c-0.71-1.03-1.59-1.95-2.56-2.69c-4.1-3.13-9.91-4.2-16.36-3.03c-7.34,1.33-12.21,3.88-14.48,7.59
	c-1.59,2.6-1.88,6.4-0.8,10.43c1.09,4.06,3.36,7.35,6.07,8.82c0.2,0.11,0.41,0.21,0.62,0.3c3.68,1.59,7.97-0.03,12.18-4.6
	c0.6-0.65,1.17-1.31,1.74-1.97c1.33-1.54,2.59-3,4.13-4.22c0.19-0.15,0.7-0.56,0.97-0.59c0.05-0.01,0.12,0,0.2,0.01c0,0,0,0,0.01,0
	c-0.89,1.82-1.65,3.69-2.41,5.56c-1.03,2.54-2.1,5.17-3.48,7.64c-7.02,12.53-0.7,24.38,0.06,25.73c0.66,1.46,7,14.96,16.7,16.12
	l-1.99,21.59c-3.71,0.86-6.48,4.19-6.48,8.16c0,1.14,0.92,2.06,2.06,2.06h11.18c0.96,0,1.79-0.66,2.01-1.6l2.39-10.31h11.38
	l0.28,1.8c-3.48,1.02-6.02,4.24-6.02,8.04c0,1.14,0.92,2.06,2.06,2.06h11.18c1,0,1.86-0.72,2.03-1.71l2.06-11.9
	c0.19-1.12-0.56-2.19-1.68-2.38c-1.12-0.2-2.19,0.56-2.38,1.68l-1.76,10.19h-6.85c0.73-1.31,2.12-2.19,3.72-2.19
	c0.6,0,1.17-0.26,1.57-0.72c0.39-0.46,0.56-1.06,0.47-1.66l-0.87-5.59c-0.16-1-1.02-1.75-2.04-1.75h-14.79
	c-0.96,0-1.79,0.66-2.01,1.6l-2.39,10.31h-6.95c0.73-1.31,2.12-2.19,3.72-2.19c1.07,0,1.95-0.81,2.05-1.87l2.18-23.62
	c5.83,2.62,11.36,3.64,16.39,3.64c0.79,0,1.56-0.03,2.33-0.08c1.03-0.05,2.05-0.12,3.08-0.25c5.25-0.67,10.27-2.41,14.99-5.19
	c1.01-0.56,1.91-1.11,2.69-1.62c0,0.01,0.01,0.02,0.01,0.02l3.29,5.43c2.25,3.7,5.7,6.8,9.99,8.95c3.02,1.51,4.89,4.55,4.89,7.93
	c0,4.89-3.98,8.86-8.86,8.86h-7.88c0.73-1.31,2.12-2.19,3.72-2.19c1.07,0,1.96-0.81,2.05-1.88l0.48-5.38
	c0.1-1.13-0.73-2.14-1.87-2.24c-1.12-0.1-2.14,0.73-2.24,1.87l-0.33,3.72c-3.7,0.86-6.47,4.19-6.47,8.16c0,1.14,0.92,2.06,2.06,2.06
	h11.18c0.16,0,0.32-0.02,0.47-0.06c6.61-0.6,11.81-6.16,11.81-12.92c0-0.01,0-0.02,0-0.03c3.33-0.64,5.86-3.57,5.86-7.08
	c0-1.14-0.92-2.06-2.06-2.06c-1.14,0-2.06,0.92-2.06,2.06c0,1.47-1.03,2.69-2.4,3.01c-1.06-3.21-3.35-5.92-6.5-7.5
	c-3.6-1.8-6.47-4.36-8.31-7.4l-3.29-5.43c-0.01-0.02-0.03-0.03-0.04-0.05c0.52-0.05,1.04-0.12,1.56-0.24
	c10.33-2.39,13.38-18.61,13.67-20.27c0.41-1.5,3.55-14.55-6.38-24.92c-1.95-2.04-3.65-4.32-5.28-6.52c-0.46-0.62-0.93-1.25-1.4-1.87
	c0.3-0.16,0.59-0.31,0.81-0.37c0.08-0.02,0.15-0.03,0.2-0.03c0.26,0,0.82,0.36,1.02,0.5c1.65,1.06,3.04,2.39,4.51,3.8
	c0.63,0.6,1.26,1.2,1.92,1.79c2.75,2.47,5.43,3.9,7.89,4.24c1.91,0.27,3.69-0.12,5.26-1.18c2.56-1.72,4.5-5.22,5.2-9.36
	C241.35,53.55,240.7,49.79,238.87,47.35z M201.02,113.58c-3.28,1.55-7.43,2.98-12.21,3.49c-0.36,0.03-0.72,0.07-1.08,0.1
	c-0.11,0.01-0.21,0.02-0.32,0.03c-4.58,0.23-9.2-0.49-13.8-2.1c1.43-1.05,2.84-2.4,4.22-4.06c0.03-0.04,0.06-0.07,0.09-0.11
	c0.16-0.19,0.31-0.36,0.47-0.56c2.29,3.07,5.96,4.96,9.86,4.96c0.5,0,1.01-0.03,1.52-0.1c4.45-0.57,8.15-3.56,9.79-7.56
	c0.19,0.14,0.38,0.27,0.56,0.4c0.03,0.02,0.06,0.04,0.09,0.06c1.78,1.28,3.5,2.26,5.17,2.92
	C203.95,112.01,202.5,112.85,201.02,113.58z M190.45,104.95c-0.02-0.05-1.48-3.53-1.89-8.67c0.07,0.08,0.13,0.16,0.2,0.25
	c0.16,0.2,0.31,0.39,0.46,0.58c0.48,0.61,0.96,1.2,1.44,1.76c0.09,0.1,0.17,0.21,0.26,0.31c0.48,0.57,0.96,1.12,1.44,1.65
	c0.19,0.21,0.38,0.42,0.57,0.63c0.36,0.39,0.72,0.77,1.07,1.15c0.27,0.28,0.54,0.56,0.81,0.83c0.33,0.33,0.65,0.65,0.97,0.96
	c0.12,0.12,0.25,0.25,0.37,0.36c-0.72,3.32-3.48,5.93-6.92,6.37c-3.43,0.44-6.77-1.4-8.29-4.43c0.08-0.13,0.17-0.28,0.25-0.42
	c0.25-0.41,0.5-0.83,0.76-1.26c0.18-0.31,0.36-0.63,0.54-0.95c0.25-0.45,0.5-0.9,0.75-1.37c0.13-0.24,0.26-0.49,0.39-0.74
	c0.34-0.66,0.68-1.34,1.02-2.04c0.05-0.1,0.1-0.21,0.15-0.31l0,0c0.66,4.14,1.79,6.8,1.86,6.98c0.34,0.78,1.09,1.24,1.89,1.24
	c0.27,0,0.55-0.05,0.82-0.17C190.42,107.21,190.9,106,190.45,104.95z M212.31,107.82c-0.55,0.13-1.17,0.19-1.85,0.18
	c0,0-0.01,0-0.01,0c-3.42-0.09-9.04-2.52-17.3-12.57c-0.02-0.02-0.04-0.05-0.06-0.07c-0.27-0.33-0.54-0.66-0.81-1.01
	c-0.08-0.1-0.16-0.2-0.24-0.3c-0.23-0.29-0.46-0.58-0.69-0.88c-0.14-0.18-0.28-0.37-0.42-0.55c-0.19-0.25-0.38-0.49-0.57-0.75
	c-0.2-0.27-0.41-0.55-0.62-0.83c-0.14-0.19-0.28-0.37-0.42-0.57c-0.36-0.49-0.71-0.99-1.08-1.5c-0.01-0.01-0.02-0.02-0.03-0.04
	c-0.1-0.13-0.21-0.26-0.34-0.36c-0.02-0.01-0.03-0.02-0.05-0.04c-0.11-0.09-0.24-0.16-0.37-0.22c-0.05-0.02-0.09-0.04-0.14-0.06
	c-0.11-0.04-0.23-0.08-0.35-0.1c-0.05-0.01-0.09-0.02-0.14-0.03c-0.02,0-0.03-0.01-0.05-0.01c-0.15-0.02-0.3-0.01-0.44,0.01
	c-0.01,0-0.02,0-0.03,0c-0.03,0-0.06,0.02-0.09,0.02c-0.12,0.02-0.24,0.05-0.36,0.1c-0.06,0.02-0.11,0.04-0.16,0.07
	c-0.11,0.05-0.21,0.11-0.31,0.18c-0.04,0.03-0.08,0.04-0.11,0.07c-0.12,0.1-0.23,0.21-0.32,0.33c-0.03,0.04-0.06,0.09-0.09,0.13
	c-0.07,0.1-0.13,0.21-0.18,0.33c-0.01,0.03-0.03,0.05-0.04,0.08c-0.22,0.59-0.44,1.15-0.66,1.71c-0.1,0.25-0.2,0.5-0.3,0.75
	c-0.12,0.29-0.23,0.57-0.35,0.85c-0.14,0.33-0.27,0.66-0.41,0.98c-0.07,0.17-0.14,0.34-0.22,0.51c-0.17,0.39-0.33,0.77-0.5,1.14
	c-0.03,0.08-0.07,0.16-0.1,0.24c-5.72,12.84-10.78,16.83-14.19,17.81c0,0,0,0,0,0c-0.65,0.19-1.26,0.28-1.83,0.29
	c-4.64,0.16-8.95-4.62-11.73-8.87c3.69,0.97,7.38,0.84,11.01-0.4c8.43-2.88,14.66-11.13,18.25-17.15c0.32,0.19,0.65,0.35,1.01,0.45
	c0.53,0.15,1.09,0.19,1.65,0.12c1.15-0.15,2.18-0.76,2.85-1.68c9.22,8.04,17.76,11.92,25.49,11.55c2.81-0.14,5.11-0.83,6.92-1.68
	C219.93,100.9,216.96,106.75,212.31,107.82z M217.55,69.5c7.81,8.15,6.01,18.33,5.48,20.6c-0.84,0.83-3.7,3.27-8.61,3.5
	c-4.89,0.24-12.74-1.68-23.56-11.41l0.02-0.06c0.03-0.07,0.09-0.12,0.17-0.13l0.9-0.11c1.11-0.14,2.11-0.71,2.79-1.6
	c0.69-0.89,0.99-1.99,0.85-3.1c0,0,0,0,0,0c-0.14-1.11-0.71-2.11-1.6-2.79c-0.89-0.69-1.99-0.99-3.1-0.85l-12.64,1.61
	c-2.3,0.29-3.93,2.4-3.64,4.7c0.29,2.3,2.4,3.93,4.7,3.64l0.9-0.11c0.07-0.01,0.15,0.02,0.19,0.08l0.37,0.5
	c-3.14,5.53-8.99,13.92-16.73,16.56c-4.22,1.44-8.42,0.98-12.81-1.38c-1.15-2.22-5.26-11.51,0.19-21.23c1.51-2.69,2.62-5.44,3.7-8.1
	c0.86-2.13,1.69-4.16,2.66-6.05c1.92-0.07,3.82-1.18,4.86-2.92c0.84-1.41,1.08-2.87,0.91-4.28c3.51-2.63,8.59-4.36,16.67-4.76
	c-1.15,2.41-1.22,5.44-0.18,9.05c0.26,0.9,1.08,1.49,1.98,1.49c0.19,0,0.38-0.03,0.57-0.08c1.09-0.32,1.73-1.46,1.41-2.55
	c-0.89-3.08-0.75-5.41,0.4-6.92c1.25-1.64,3.51-2.12,4.75-2.26c0.17-0.01,0.35-0.03,0.51-0.05c0.2-0.01,0.33-0.01,0.37-0.01
	c0.06,0,0.03,0,0.04,0c0.08,0,0.15-0.01,0.23-0.02c6.5-0.37,10.75,1.14,14.1,3.69c0.18,0.94,0.56,1.87,1.2,2.75
	c0.93,1.26,2.34,2.09,3.81,2.36c0.85,1.06,1.68,2.18,2.54,3.33C213.65,64.89,215.42,67.27,217.55,69.5z"/>
<path d="M104.35,35.22c-3.4-2.7-8.85-3.44-16.2-2.17c-6.46,1.11-11.55,4.12-14.33,8.46c-0.85,1.32-1.46,2.88-1.7,4.47
	c-4.15-1.19-9.05-1.25-15.3,0.83c-0.01,0-0.01,0-0.02,0c-0.08,0.02-0.75,0.2-1.68,0.6c-2.05,0.78-4.24,1.77-6.59,3.02
	c-9.13,2.87-14.49,6.57-17.74,10.7c-1.16-0.81-2.5-1.4-3.84-1.74c-5-1.25-10.76,0.07-16.22,3.7c-6.21,4.13-9.67,8.41-10.28,12.71
	c-0.43,3.02,0.81,6.62,3.4,9.89c2.61,3.29,6,5.42,9.07,5.69c0.23,0.02,0.46,0.03,0.69,0.03c4.01,0,7.31-3.19,9.36-9.06
	c0.29-0.83,0.55-1.67,0.81-2.5c0.56-1.8,1.11-3.5,1.92-5.11c-0.16,1.18-0.3,2.36-0.44,3.53c-0.31,2.73-0.64,5.54-1.31,8.29
	c-3.42,13.94,5.83,23.67,6.94,24.77c0.33,0.4,1.58,1.86,3.45,3.61l-1.57,2.59c-1.84,3.04-4.72,5.6-8.31,7.4
	c-2.28,1.15-4.11,2.89-5.36,4.98c-1.59-0.13-2.84-1.45-2.84-3.07c0-1.14-0.92-2.06-2.06-2.06s-2.06,0.92-2.06,2.06
	c0,3.36,2.32,6.19,5.44,6.98c-0.18,0.88-0.28,1.79-0.28,2.71c0,6.76,5.2,12.33,11.81,12.92c0.15,0.04,0.31,0.06,0.47,0.06h11.18
	c1.14,0,2.06-0.92,2.06-2.06c0-3.96-2.77-7.29-6.47-8.16l-0.34-3.72c-0.1-1.13-1.1-1.97-2.24-1.87c-1.13,0.1-1.97,1.1-1.87,2.24
	l0.48,5.38c0.1,1.06,0.99,1.88,2.05,1.88c1.6,0,2.99,0.89,3.72,2.19h-7.88c-4.89,0-8.86-3.98-8.86-8.86c0-3.37,1.88-6.41,4.89-7.93
	c4.29-2.15,7.74-5.25,9.99-8.95l1.23-2.03c3.36,2.56,7.63,4.9,12,4.9c1.11,0,2.23-0.15,3.34-0.49c0.68-0.21,1.32-0.49,1.95-0.82
	c2.4,0.39,4.7,0.58,6.89,0.58c4.3,0,8.19-0.7,11.68-1.8c1.28-0.39,2.54-0.83,3.78-1.35c0.7-0.29,1.38-0.62,2.06-0.96l2.03,23.62
	c0.09,1.07,0.98,1.89,2.05,1.89c1.6,0,2.99,0.89,3.72,2.19h-6.95l-2.39-10.31c-0.22-0.93-1.05-1.6-2.01-1.6H60.9
	c-1.02,0-1.88,0.74-2.04,1.75l-0.87,5.59c-0.09,0.59,0.08,1.2,0.47,1.66c0.39,0.46,0.96,0.72,1.57,0.72c1.6,0,2.99,0.89,3.72,2.19
	H56.9l-1.76-10.19c-0.19-1.12-1.25-1.87-2.38-1.68c-1.12,0.19-1.87,1.26-1.68,2.38l2.06,11.9c0.17,0.99,1.03,1.71,2.03,1.71h11.18
	c1.14,0,2.06-0.92,2.06-2.06c0-3.8-2.55-7.02-6.02-8.04l0.28-1.8h11.38l2.39,10.31c0.22,0.93,1.05,1.6,2.01,1.6h11.18
	c1.14,0,2.06-0.92,2.06-2.06c0-3.96-2.76-7.29-6.47-8.16l-2.05-23.85c2.3-1.49,4.47-3.24,6.48-5.24c2.6-2.48,4.28-4.65,5.03-5.71
	c0.67-0.22,1.32-0.48,1.93-0.81c9.31-5.07,7.92-21.49,7.75-23.19c-0.01-1.55-0.46-14.97-12.81-22.31c-2.43-1.44-4.67-3.19-6.83-4.87
	c-0.58-0.45-1.17-0.91-1.76-1.36c0.22-0.2,0.44-0.39,0.62-0.49c0.07-0.04,0.13-0.07,0.19-0.08c0.25-0.06,0.88,0.15,1.11,0.22
	c1.86,0.61,3.54,1.55,5.32,2.55c0.76,0.42,1.52,0.85,2.31,1.25c3.28,1.7,6.24,2.4,8.71,2.12c1.92-0.22,3.54-1.05,4.8-2.46
	c2.04-2.31,3.04-6.18,2.68-10.37C108.32,40.59,106.74,37.12,104.35,35.22z M80.15,112.54c-0.1,0.05-0.19,0.1-0.28,0.16
	c-1.38,0.83-2.81,1.56-4.3,2.18c-5.04,2.11-10.5,2.96-16.29,2.58c1.1-1.38,2.08-3.05,2.97-5.01c0.03-0.06,0.06-0.12,0.08-0.18
	c0.1-0.22,0.21-0.43,0.3-0.67c2.17,1.68,4.84,2.6,7.56,2.6c1.58,0,3.18-0.31,4.7-0.94c4.13-1.73,6.91-5.61,7.42-9.91
	c0.22,0.09,0.44,0.16,0.66,0.24c0.06,0.02,0.12,0.04,0.18,0.07c2.02,0.74,3.92,1.21,5.68,1.4
	C86.23,108.08,83.34,110.59,80.15,112.54z M72.81,103.18c-0.03-0.04-2.37-3.01-4.14-7.85c0.09,0.07,0.18,0.13,0.27,0.19
	c0.2,0.14,0.39,0.28,0.58,0.42c0.63,0.46,1.26,0.9,1.88,1.33c0.09,0.06,0.17,0.12,0.26,0.18c0.65,0.44,1.28,0.86,1.91,1.26
	c0.23,0.15,0.46,0.3,0.69,0.44c0.46,0.29,0.92,0.57,1.37,0.84c0.3,0.18,0.59,0.35,0.88,0.52c0.44,0.25,0.88,0.5,1.32,0.73
	c0.14,0.08,0.29,0.16,0.42,0.23c0.2,3.39-1.77,6.65-4.96,7.98c-3.19,1.34-6.89,0.46-9.17-2.05c0.04-0.15,0.08-0.31,0.13-0.46
	c0.14-0.48,0.28-0.98,0.41-1.49c0.08-0.32,0.17-0.65,0.25-0.98c0.12-0.5,0.24-1.02,0.36-1.54c0.06-0.27,0.12-0.53,0.17-0.81
	c0.15-0.73,0.3-1.48,0.44-2.26c0.02-0.11,0.04-0.22,0.05-0.32c0,0,0-0.01,0-0.01c1.74,3.81,3.54,6.07,3.66,6.22
	c0.41,0.5,1,0.77,1.6,0.77c0.45,0,0.91-0.15,1.29-0.46C73.38,105.37,73.52,104.07,72.81,103.18z M94.64,100.11
	c-0.51,0.27-1.09,0.5-1.75,0.67c-0.35,0.09-0.72,0.15-1.13,0.2c-0.03,0-0.06,0.01-0.09,0.01c-0.14,0.01-0.28,0.02-0.42,0.03
	c0,0-0.01,0-0.01,0c-3.7,0.2-9.78-1.5-19.51-8.56c-0.08-0.06-0.16-0.12-0.25-0.18c-0.32-0.23-0.64-0.47-0.97-0.71
	c-0.16-0.12-0.31-0.24-0.47-0.36c-0.27-0.21-0.54-0.41-0.82-0.62c-0.25-0.19-0.5-0.39-0.75-0.59c-0.2-0.16-0.4-0.31-0.61-0.48
	c-0.47-0.37-0.95-0.76-1.43-1.15c-0.01-0.01-0.03-0.02-0.05-0.03c-0.13-0.1-0.27-0.19-0.42-0.26c-0.02-0.01-0.05-0.01-0.07-0.02
	c-0.13-0.05-0.27-0.09-0.41-0.12c-0.05-0.01-0.1-0.01-0.14-0.02c-0.12-0.01-0.25-0.01-0.38,0c-0.04,0-0.08,0-0.13,0.01
	c-0.02,0-0.03,0-0.05,0c-0.15,0.03-0.3,0.07-0.43,0.13c-0.01,0-0.01,0-0.02,0.01c-0.02,0.01-0.04,0.03-0.06,0.03
	c-0.13,0.06-0.25,0.13-0.36,0.21c-0.04,0.03-0.07,0.05-0.11,0.08c-0.11,0.09-0.21,0.2-0.3,0.31c-0.01,0.02-0.03,0.03-0.04,0.05
	c-0.1,0.13-0.17,0.28-0.23,0.43c-0.02,0.04-0.03,0.08-0.04,0.12c-0.04,0.13-0.07,0.26-0.09,0.39c0,0.03-0.02,0.05-0.02,0.08
	c-0.06,0.63-0.12,1.23-0.18,1.83c-0.03,0.26-0.06,0.5-0.08,0.76c-0.04,0.32-0.07,0.65-0.11,0.96c-0.04,0.34-0.08,0.68-0.13,1.01
	c-0.03,0.2-0.05,0.4-0.08,0.59c-0.05,0.4-0.11,0.8-0.17,1.19c-0.01,0.1-0.03,0.2-0.04,0.31c-0.07,0.46-0.14,0.91-0.21,1.35
	c0,0,0,0.01,0,0.01c-2.12,12.87-5.78,17.78-8.7,19.58c0,0,0,0,0,0c-0.58,0.36-1.14,0.61-1.69,0.78c-4.31,1.32-9.48-1.83-13.27-5.06
	c0,0-0.01-0.01-0.01-0.01c-0.13-0.11-0.27-0.23-0.39-0.34c3.82-0.05,7.33-1.16,10.5-3.33c7.35-5.03,11.15-14.64,13-21.4
	c0.36,0.1,0.72,0.16,1.09,0.16c0.55,0,1.1-0.11,1.63-0.33c1.07-0.45,1.89-1.32,2.3-2.38c11.04,5.28,20.32,6.74,27.65,4.32
	c2.66-0.88,4.7-2.17,6.21-3.47C100.12,91.41,98.81,97.84,94.64,100.11z M89.44,61.77c9.7,5.76,10.69,16.06,10.79,18.39
	c-0.58,1.02-2.69,4.14-7.36,5.68c-4.63,1.53-12.72,1.78-25.75-4.69l0.01-0.07c0.01-0.08,0.06-0.14,0.13-0.17l0.83-0.35
	c1.04-0.43,1.84-1.25,2.26-2.28c0.42-1.04,0.42-2.18-0.01-3.22h0c-0.43-1.04-1.25-1.84-2.28-2.26c-1.04-0.42-2.18-0.42-3.22,0.01
	l-11.75,4.93c-2.14,0.9-3.14,3.36-2.25,5.5c0.9,2.14,3.36,3.14,5.5,2.25l0.83-0.35c0.07-0.03,0.15-0.02,0.21,0.03l0.48,0.38
	c-1.55,6.17-4.95,15.83-11.7,20.44c-3.68,2.51-7.84,3.19-12.7,2.09c-1.66-1.82-8.14-9.77-5.5-20.51c0.73-3,1.07-5.95,1.4-8.8
	c0.23-2,0.45-3.92,0.79-5.75c2.1-0.63,3.75-2.6,4.05-4.89c0.19-1.44-0.07-2.75-0.63-3.88c2.63-3.68,7.12-6.86,15.16-9.53
	c-0.46,2.63,0.27,5.57,2.24,8.77c0.39,0.63,1.07,0.98,1.76,0.98c0.37,0,0.74-0.1,1.08-0.31c0.97-0.6,1.27-1.87,0.68-2.84
	c-1.68-2.73-2.17-5.01-1.47-6.77c0.76-1.9,2.78-2.96,3.94-3.44c0.18-0.07,0.36-0.14,0.53-0.2c0.2-0.07,0.32-0.1,0.34-0.11
	c0.09-0.02,0.17-0.06,0.25-0.09c6.2-2.1,10.71-1.77,14.64-0.18c0.41,0.85,1,1.63,1.83,2.3c1.25,1.01,2.86,1.45,4.38,1.31
	c1.07,0.78,2.15,1.61,3.25,2.47C84.45,58.38,86.79,60.2,89.44,61.77z"/>
<path d="M200.27,71.52c-1.7,2.2-2.44,4.92-2.09,7.68s1.75,5.21,3.95,6.91h0c1.89,1.46,4.13,2.17,6.35,2.17
	c3.11,0,6.19-1.38,8.23-4.03c3.51-4.53,2.68-11.08-1.86-14.58C210.32,66.16,203.78,66.99,200.27,71.52z M210.18,74.14
	c0.68-0.87,1.93-1.03,2.8-0.36c0.87,0.67,1.03,1.93,0.36,2.8c-0.68,0.87-1.93,1.03-2.8,0.36C209.66,76.27,209.5,75.02,210.18,74.14z
	 M209.49,71.69c-0.79,0.32-1.51,0.83-2.07,1.55c-1.7,2.2-1.3,5.36,0.9,7.06c1.76,1.36,4.12,1.36,5.87,0.18
	c-0.2,0.43-0.44,0.85-0.74,1.24c-2.12,2.73-6.06,3.24-8.8,1.12h0c-1.33-1.03-2.17-2.51-2.38-4.17c-0.21-1.66,0.24-3.31,1.26-4.63
	C204.98,72.17,207.3,71.34,209.49,71.69z"/>
<path d="M169.02,74.91c-2.2-1.7-4.93-2.44-7.68-2.09c-2.75,0.35-5.21,1.75-6.91,3.95c-3.51,4.53-2.68,11.07,1.86,14.58
	c1.84,1.42,4.05,2.18,6.34,2.18c0.44,0,0.89-0.03,1.33-0.09c2.75-0.35,5.21-1.75,6.91-3.95c1.7-2.2,2.44-4.92,2.09-7.68
	C172.62,79.06,171.21,76.61,169.02,74.91z M158.56,78.64c0.68-0.87,1.93-1.03,2.8-0.36c0.87,0.68,1.03,1.93,0.36,2.8
	c-0.68,0.87-1.93,1.03-2.8,0.36C158.04,80.77,157.88,79.51,158.56,78.64z M167.61,86.97c-1.03,1.33-2.51,2.17-4.17,2.38
	c-1.66,0.21-3.31-0.24-4.63-1.26c-1.88-1.45-2.7-3.77-2.35-5.96c0.32,0.79,0.83,1.51,1.55,2.07c2.2,1.7,5.36,1.3,7.06-0.9
	c1.36-1.75,1.36-4.1,0.2-5.85c0.43,0.2,0.84,0.43,1.22,0.72c1.32,1.03,2.17,2.51,2.38,4.17C169.09,84,168.64,85.65,167.61,86.97z"/>
<path d="M73.33,68.34c-1.05,2.57-1.04,5.4,0.04,7.96c1.07,2.56,3.08,4.55,5.65,5.6c1.27,0.52,2.6,0.78,3.94,0.78
	c1.36,0,2.73-0.27,4.02-0.81c2.56-1.07,4.55-3.08,5.6-5.65c2.17-5.31-0.38-11.39-5.69-13.56C81.58,60.48,75.5,63.04,73.33,68.34z
	 M83.58,68.22c0.42-1.02,1.58-1.51,2.6-1.09c1.02,0.42,1.51,1.58,1.09,2.6c-0.42,1.02-1.58,1.51-2.6,1.09
	C83.65,70.41,83.16,69.24,83.58,68.22z M77.15,69.9c0.63-1.55,1.83-2.76,3.38-3.41c0.55-0.23,1.12-0.38,1.7-0.44
	c-0.66,0.52-1.2,1.21-1.54,2.04c-1.05,2.57,0.18,5.51,2.75,6.56c2.05,0.84,4.32,0.22,5.7-1.36c-0.08,0.46-0.2,0.91-0.38,1.35
	c-1.31,3.2-4.98,4.74-8.18,3.43c-1.55-0.63-2.76-1.83-3.41-3.38C76.52,73.16,76.51,71.45,77.15,69.9z"/>
<path d="M44.12,79.96c-2.57-1.05-5.4-1.04-7.96,0.04c-2.56,1.07-4.55,3.08-5.6,5.65c-2.17,5.31,0.38,11.39,5.69,13.56
	c1.27,0.52,2.6,0.78,3.94,0.78c1.36,0,2.73-0.27,4.02-0.82c2.56-1.07,4.55-3.08,5.6-5.65c1.05-2.57,1.04-5.4-0.04-7.96
	C48.7,83,46.69,81.02,44.12,79.96z M35.04,86.35c0.42-1.02,1.58-1.51,2.6-1.09c1.02,0.42,1.51,1.58,1.09,2.6
	c-0.42,1.02-1.58,1.51-2.6,1.09C35.11,88.54,34.62,87.37,35.04,86.35z M45.99,91.96c-0.63,1.55-1.83,2.76-3.38,3.41
	c-1.55,0.65-3.25,0.66-4.8,0.02c-1.55-0.63-2.76-1.83-3.41-3.38c-0.23-0.55-0.38-1.12-0.45-1.7c0.52,0.66,1.21,1.2,2.04,1.54
	c2.57,1.05,5.51-0.18,6.56-2.75c0.84-2.05,0.22-4.33-1.36-5.7c0.46,0.08,0.91,0.2,1.35,0.38c1.55,0.63,2.76,1.83,3.41,3.38
	C46.62,88.7,46.63,90.41,45.99,91.96z"/>
</svg>
