<?xml version="1.0" encoding="utf-8"?>
<!-- Generator: Adobe Illustrator 22.0.1, SVG Export Plug-In . SVG Version: 6.00 Build 0)  -->
<svg version="1.1" id="Layer_1" xmlns="http://www.w3.org/2000/svg" xmlns:xlink="http://www.w3.org/1999/xlink" x="0px" y="0px"
	 viewBox="0 0 264.94 254.864" enable-background="new 0 0 264.94 254.864" xml:space="preserve">
<g>
	<polygon fill="#231F20" points="72.002,42.867 73.091,36.076 74.802,42.738 80.607,42.47 85.176,16.221 79.85,16.466 77.18,32.74 
		75.292,26.668 70,26.912 68.678,33.132 64.554,17.173 59.227,17.419 66.198,43.135 	"/>
	<polygon fill="#231F20" points="95.394,20.812 96.123,36.586 91.206,36.814 91.445,41.969 106.331,41.281 106.092,36.126 
		101.278,36.348 100.55,20.574 105.364,20.352 105.126,15.195 90.24,15.883 90.478,21.039 	"/>
	<path fill="#231F20" d="M112.748,26.187c0.599,0.623,1.338,1.199,2.218,1.728c0.88,0.53,1.913,1.053,3.1,1.568
		c0.699,0.31,1.329,0.601,1.888,0.871s1.046,0.55,1.459,0.839c0.412,0.289,0.729,0.611,0.951,0.966s0.343,0.771,0.366,1.249
		c0.024,0.523-0.17,1.006-0.583,1.447c-0.413,0.44-0.983,0.701-1.709,0.78c-0.432,0.043-0.861-0.006-1.29-0.146
		c-0.429-0.139-0.811-0.39-1.146-0.751c-0.337-0.36-0.62-0.826-0.852-1.397s-0.367-1.267-0.404-2.085l-5.36,0.247
		c0.021,1.482,0.277,2.805,0.765,3.968c0.486,1.163,1.153,2.143,2,2.937c0.846,0.793,1.837,1.381,2.973,1.762
		c1.135,0.38,2.351,0.518,3.646,0.412c0.887-0.063,1.779-0.253,2.677-0.568c0.897-0.315,1.704-0.763,2.418-1.343
		c0.714-0.581,1.291-1.304,1.73-2.168c0.439-0.863,0.655-1.866,0.648-3.006c-0.03-1.14-0.212-2.129-0.547-2.969
		c-0.335-0.84-0.844-1.604-1.525-2.291c-0.682-0.688-1.532-1.32-2.552-1.9c-1.019-0.58-2.227-1.169-3.623-1.767
		c-1.025-0.454-1.896-0.922-2.613-1.401c-0.718-0.48-1.094-1.084-1.128-1.812c-0.013-0.273,0.049-0.527,0.188-0.762
		c0.137-0.234,0.327-0.443,0.57-0.625c0.242-0.183,0.51-0.32,0.802-0.413c0.292-0.094,0.597-0.148,0.916-0.162
		c0.958-0.021,1.741,0.262,2.349,0.85s0.984,1.438,1.127,2.548l5.258-0.242c-0.159-1.453-0.531-2.702-1.115-3.747
		s-1.285-1.896-2.102-2.555s-1.707-1.13-2.666-1.416c-0.96-0.286-1.907-0.408-2.84-0.365c-1.024,0.047-2.02,0.229-2.986,0.548
		c-0.966,0.319-1.818,0.769-2.555,1.35c-0.737,0.582-1.325,1.3-1.765,2.152c-0.44,0.854-0.634,1.838-0.582,2.952
		c0.045,1.002,0.224,1.883,0.533,2.645C111.694,24.873,112.148,25.565,112.748,26.187z"/>
	<polygon fill="#231F20" points="139.733,39.738 139.265,29.633 146.437,29.302 146.904,39.408 152.059,39.17 150.853,13.084 
		145.699,13.322 146.197,24.112 139.026,24.443 138.529,13.654 133.372,13.892 134.578,39.978 	"/>
	<polygon fill="#231F20" points="161.579,17.755 162.306,33.529 157.39,33.756 157.627,38.912 172.514,38.225 172.276,33.07 
		167.462,33.291 166.734,17.517 171.547,17.295 171.309,12.139 156.423,12.826 156.661,17.983 	"/>
	<polygon fill="#231F20" points="183.325,37.726 182.576,21.507 192.544,37.299 197.46,37.072 196.187,10.99 191.031,11.229 
		191.77,27.241 181.812,11.654 176.964,11.878 178.169,37.963 	"/>
	<path fill="#231F20" d="M206.331,33.498c0.994,1.061,2.104,1.836,3.323,2.327s2.454,0.65,3.7,0.479
		c1.226-0.147,2.333-0.484,3.323-1.009c0.991-0.525,1.835-1.266,2.533-2.222c0.696-0.955,1.217-2.148,1.562-3.579
		c0.345-1.43,0.472-3.136,0.381-5.116c-0.013-0.249-0.033-0.585-0.064-1.006s-0.063-0.756-0.098-1.005l-9.321,0.431l0.226,4.882
		l4.029-0.186c-0.015,0.685-0.108,1.254-0.281,1.707c-0.173,0.452-0.385,0.811-0.635,1.072c-0.25,0.263-0.533,0.447-0.847,0.553
		c-0.315,0.106-0.608,0.165-0.882,0.178c-1.366,0.04-2.491-0.507-3.378-1.641c-0.884-1.134-1.438-2.859-1.658-5.176
		c-0.085-0.84-0.041-1.727,0.134-2.658c0.174-0.932,0.447-1.8,0.821-2.604c0.373-0.805,0.837-1.498,1.392-2.083
		c0.556-0.585,1.17-0.961,1.848-1.129c0.248-0.058,0.532-0.076,0.852-0.057c0.32,0.02,0.649,0.102,0.986,0.245
		c0.338,0.145,0.661,0.363,0.972,0.656c0.31,0.294,0.59,0.687,0.842,1.176l4.087-3.37c-0.646-1.111-1.322-1.952-2.032-2.523
		c-0.711-0.572-1.42-0.979-2.127-1.22c-0.708-0.241-1.374-0.369-2.002-0.387c-0.629-0.017-1.182-0.014-1.659,0.008
		c-1.527,0.049-2.886,0.493-4.079,1.335c-1.192,0.843-2.203,1.915-3.033,3.22s-1.453,2.753-1.869,4.347
		c-0.418,1.593-0.602,3.176-0.551,4.747c0.073,2.096,0.428,3.955,1.062,5.579C204.519,31.096,205.335,32.439,206.331,33.498z"/>
	<path fill="#231F20" d="M26.37,82.167c0.556,1.184,1.101,2.366,1.635,3.551c0.534,1.185,1.053,2.312,1.559,3.384l0.547,11.848
		l5.395-0.249l-0.541-11.711l5.11-14.539l-5.599,0.26l-2.484,7.71l-3.218-7.447l-5.565,0.257c0.483,1.072,0.991,2.201,1.525,3.386
		C25.268,79.799,25.813,80.983,26.37,82.167z"/>
	<path fill="#231F20" d="M45.802,92.988c0.528,1.562,1.239,2.857,2.13,3.888c0.892,1.031,1.941,1.792,3.15,2.284
		c1.209,0.491,2.519,0.704,3.931,0.64c1.411-0.065,2.695-0.398,3.854-1c1.159-0.601,2.134-1.455,2.928-2.564
		c0.792-1.108,1.385-2.464,1.779-4.068c0.394-1.604,0.543-3.44,0.447-5.513c-0.078-1.684-0.342-3.313-0.791-4.89
		c-0.449-1.576-1.089-2.961-1.92-4.154c-0.831-1.193-1.867-2.144-3.108-2.851c-1.242-0.707-2.694-1.021-4.355-0.945
		c-1.685,0.078-3.113,0.516-4.285,1.311c-1.172,0.795-2.117,1.831-2.833,3.107c-0.717,1.277-1.226,2.72-1.529,4.33
		c-0.301,1.61-0.413,3.27-0.334,4.978C44.962,89.611,45.273,91.426,45.802,92.988z M50.27,84.518
		c0.116-0.94,0.328-1.794,0.635-2.562c0.306-0.767,0.722-1.396,1.247-1.888c0.525-0.492,1.163-0.756,1.914-0.79
		c0.751-0.035,1.411,0.169,1.979,0.61s1.045,1.023,1.432,1.747c0.387,0.724,0.682,1.548,0.884,2.474
		c0.202,0.927,0.325,1.856,0.368,2.789c0.021,0.957-0.055,1.885-0.23,2.782c-0.176,0.897-0.436,1.686-0.78,2.362
		c-0.345,0.679-0.765,1.228-1.259,1.649c-0.493,0.423-1.06,0.647-1.696,0.678c-0.638,0.028-1.222-0.144-1.752-0.519
		c-0.531-0.374-0.994-0.883-1.388-1.527c-0.396-0.643-0.715-1.403-0.961-2.281c-0.246-0.879-0.403-1.796-0.469-2.75
		C50.128,86.384,50.153,85.46,50.27,84.518z"/>
	<path fill="#231F20" d="M69.083,79.646c0.038,1.07,0.082,2.146,0.132,3.228c0.05,1.081,0.102,2.202,0.155,3.362
		c0.09,1.936,0.301,3.688,0.637,5.257c0.334,1.571,0.846,2.904,1.536,4.002c0.689,1.097,1.56,1.929,2.613,2.497
		c1.053,0.566,2.353,0.814,3.9,0.743c1.503-0.069,2.746-0.436,3.73-1.097c0.984-0.661,1.752-1.569,2.304-2.724
		c0.551-1.154,0.927-2.528,1.127-4.124c0.2-1.594,0.277-3.36,0.234-5.297c-0.105-2.275-0.214-4.501-0.325-6.674
		c-0.113-2.174-0.241-4.352-0.388-6.535l-5.224,0.242c0.063,0.886,0.134,1.927,0.212,3.12c0.078,1.194,0.157,2.395,0.235,3.599
		c0.078,1.206,0.148,2.344,0.209,3.412c0.061,1.07,0.105,1.923,0.135,2.56c0.034,0.729,0.016,1.569-0.055,2.519
		c-0.07,0.95-0.205,1.846-0.406,2.688s-0.47,1.562-0.807,2.158c-0.337,0.598-0.768,0.908-1.292,0.933
		c-0.524,0.023-0.976-0.246-1.354-0.811c-0.38-0.563-0.698-1.262-0.952-2.095c-0.256-0.831-0.461-1.712-0.618-2.64
		c-0.158-0.929-0.276-1.755-0.354-2.481c-0.08-0.726-0.139-1.63-0.177-2.712c-0.039-1.082-0.074-2.209-0.104-3.383
		c-0.032-1.173-0.052-2.347-0.061-3.521c-0.009-1.175-0.022-2.206-0.04-3.095l-5.224,0.241c0.032,1.186,0.067,2.318,0.106,3.399
		C69.007,77.5,69.045,78.576,69.083,79.646z"/>
	<path fill="#231F20" d="M106.041,94.139c0.333-1.189,0.634-2.326,0.904-3.411l6.077-0.28l2.425,6.56l5.19-0.239l-9.536-25.7
		l-4.063,0.187l-7.126,26.471l5.224-0.241C105.406,96.445,105.708,95.331,106.041,94.139z M109.509,81.063l1.644,4.475
		c-0.592,0.028-1.098,0.057-1.519,0.088c-0.421,0.031-0.859,0.057-1.313,0.078L109.509,81.063z"/>
	<polygon fill="#231F20" points="140.352,95.857 139.885,85.751 147.055,85.421 147.522,95.526 152.677,95.289 151.472,69.203 
		146.317,69.441 146.816,80.23 139.645,80.561 139.147,69.772 133.992,70.01 135.196,96.095 	"/>
	<path fill="#231F20" d="M164.382,91.446c0.332-1.19,0.633-2.327,0.902-3.412l6.079-0.28l2.423,6.56l5.189-0.24l-9.535-25.7
		l-4.063,0.188l-7.126,26.471l5.224-0.241C163.748,93.751,164.049,92.636,164.382,91.446z M167.85,78.37l1.645,4.475
		c-0.594,0.026-1.1,0.056-1.52,0.087c-0.421,0.031-0.858,0.057-1.313,0.077L167.85,78.37z"/>
	<path fill="#231F20" d="M189.504,93.552l-0.439-9.526c1.521-0.139,2.826-0.404,3.915-0.796c1.089-0.393,1.995-0.873,2.722-1.443
		c0.727-0.569,1.302-1.189,1.728-1.859s0.736-1.352,0.933-2.045c0.195-0.692,0.302-1.359,0.317-1.999
		c0.016-0.639-0.01-1.208-0.078-1.707c-0.123-0.679-0.351-1.426-0.686-2.243s-0.917-1.566-1.746-2.247
		c-0.83-0.68-1.99-1.23-3.48-1.652c-1.491-0.421-3.455-0.576-5.89-0.464c-0.432,0.021-0.979,0.057-1.638,0.11
		c-0.658,0.054-1.249,0.115-1.771,0.185l1.128,25.918L189.504,93.552z M192.294,73.202c0.8,0.511,1.242,1.209,1.329,2.094
		c0.041,0.409-0.06,0.819-0.303,1.229s-0.585,0.779-1.025,1.107c-0.442,0.329-0.959,0.604-1.554,0.825
		c-0.595,0.222-1.232,0.348-1.915,0.379l-0.29-6.248C190.242,72.487,191.496,72.691,192.294,73.202z"/>
	<path fill="#231F20" d="M210.264,92.593l-0.439-9.525c1.521-0.139,2.826-0.405,3.914-0.797c1.089-0.393,1.996-0.873,2.722-1.443
		c0.728-0.569,1.303-1.189,1.729-1.858c0.425-0.67,0.735-1.352,0.932-2.046c0.196-0.692,0.303-1.358,0.319-1.999
		c0.015-0.639-0.011-1.208-0.079-1.707c-0.124-0.679-0.352-1.426-0.687-2.243c-0.334-0.817-0.916-1.565-1.745-2.246
		c-0.83-0.681-1.991-1.231-3.481-1.653c-1.491-0.421-3.454-0.575-5.889-0.464c-0.433,0.021-0.979,0.058-1.638,0.11
		c-0.659,0.054-1.25,0.115-1.771,0.185l1.129,25.918L210.264,92.593z M213.053,72.243c0.799,0.511,1.242,1.209,1.329,2.095
		c0.041,0.408-0.06,0.818-0.303,1.228c-0.244,0.412-0.586,0.781-1.026,1.109c-0.441,0.328-0.959,0.603-1.554,0.824
		s-1.232,0.348-1.915,0.38l-0.288-6.249C211.003,71.529,212.254,71.732,213.053,72.243z"/>
	<path fill="#231F20" d="M225.983,72.947c0.557,1.184,1.102,2.367,1.635,3.552c0.535,1.185,1.054,2.312,1.56,3.383l0.547,11.848
		l5.396-0.249l-0.541-11.711l5.11-14.538l-5.599,0.259l-2.484,7.71l-3.218-7.447l-5.565,0.257c0.483,1.073,0.991,2.202,1.524,3.386
		C224.882,70.58,225.426,71.763,225.983,72.947z"/>
	<polygon fill="#231F20" points="260.621,52.922 260.621,17.904 241.36,17.904 241.209,22.439 256.085,22.439 256.085,53.184 	"/>
	<path fill="#231F20" d="M264.94,99.282l-2.23-46.482l-59.632,3.453l37.507-10.416l0.076-2.288c-0.051-0.004-0.102-0.01-0.154-0.014
		l-0.074,2.216L241.955,0L26.312,11.35l8.152,10.336l-2.983-3.782H4.706v48.791L0,68.015v0l1.202,44.95l3.503-0.182v142.081h255.915
		V100.502L264.94,99.282z M237.258,4.789l-1.219,36.654L34.951,52.085l12.7-15.18l2.364-2.826l-2.282-2.893L35.297,15.418
		L237.258,4.789z M9.241,22.439h25.817l9.114,11.555l-19.384,23.17l17.111-0.906L9.241,65.422V22.439z M258.399,57.593l1.794,37.394
		L5.612,108.195l-0.96-35.906L258.399,57.593z M256.085,250.329H9.241V112.548l-1.373,0.071l64.012-3.321l-39.747,11.708
		l-0.031,0.862l-0.038,0.002l-0.558,16.777l-0.952,26.8l0.061-0.017l-0.061,1.828l214.574-11.644l-18.616-24.247l17.97-21.213
		l-22.442,1.238l34.044-9.61V250.329z M222.916,134.129l13.376,17.422l-201.04,10.909l1.207-36.291l197.752-10.906l-11.159,13.172
		l-2.365,2.792L222.916,134.129z"/>
	<g>
		<path fill="#231F20" d="M48.237,130.573c0.272-0.035,0.567-0.066,0.886-0.093c0.317-0.025,0.642-0.052,0.971-0.079
			c0.329-0.025,0.648-0.052,0.955-0.078c0.306-0.025,0.573-0.043,0.801-0.054c2.344-0.108,4.249,0.004,5.712,0.335
			c1.464,0.331,2.608,0.786,3.434,1.364c0.825,0.577,1.409,1.229,1.75,1.954c0.342,0.727,0.562,1.418,0.661,2.074
			c0.198,1.313,0.085,2.477-0.334,3.488c-0.421,1.013-1.094,1.882-2.018,2.608c0.468,0.274,0.923,0.619,1.365,1.032
			c0.441,0.413,0.833,0.88,1.177,1.399c0.343,0.521,0.619,1.066,0.828,1.639s0.327,1.154,0.354,1.745
			c0.066,1.435-0.173,2.672-0.718,3.712c-0.545,1.04-1.332,1.909-2.36,2.606c-1.029,0.698-2.265,1.229-3.708,1.591
			c-1.444,0.364-3.019,0.585-4.726,0.663c-0.524,0.024-1.111,0.029-1.762,0.014c-0.65-0.017-1.365-0.04-2.142-0.072L48.237,130.573z
			 M54.028,135.198c-0.114,0.006-0.228,0.011-0.341,0.016c-0.114,0.006-0.227,0.022-0.34,0.051l0.211,4.574
			c0.115,0.019,0.235,0.024,0.361,0.019c0.125-0.006,0.244-0.012,0.358-0.018c0.569-0.025,1.112-0.113,1.63-0.263
			c0.517-0.148,0.971-0.341,1.359-0.576c0.388-0.234,0.69-0.511,0.903-0.829c0.213-0.317,0.3-0.669,0.259-1.055
			c-0.017-0.364-0.157-0.678-0.419-0.939c-0.264-0.261-0.592-0.468-0.987-0.621c-0.396-0.153-0.856-0.257-1.384-0.312
			C55.111,135.189,54.575,135.173,54.028,135.198z M54.091,151.38c0.706-0.032,1.387-0.109,2.042-0.231
			c0.656-0.12,1.229-0.318,1.718-0.592c0.489-0.274,0.871-0.645,1.146-1.114c0.274-0.469,0.385-1.044,0.331-1.727
			c-0.044-0.453-0.211-0.856-0.501-1.208c-0.289-0.352-0.668-0.647-1.136-0.889c-0.468-0.24-1-0.416-1.599-0.524
			c-0.598-0.109-1.215-0.149-1.853-0.12l-0.443,0.021L54.091,151.38z"/>
		<path fill="#231F20" d="M69.352,129.461l14.886-0.688l0.239,5.157l-4.814,0.222l0.729,15.774l4.814-0.223l0.238,5.156
			l-14.886,0.688l-0.239-5.155l4.917-0.228l-0.729-15.774l-4.916,0.228L69.352,129.461z"/>
		<path fill="#231F20" d="M90.914,154.607l-1.13-25.954c0.521-0.069,1.111-0.131,1.771-0.185c0.659-0.053,1.205-0.09,1.637-0.109
			c2.436-0.112,4.399,0.042,5.89,0.464c1.49,0.422,2.65,0.972,3.48,1.653s1.412,1.43,1.746,2.246
			c0.333,0.817,0.562,1.565,0.686,2.243c0.097,0.612,0.118,1.329,0.065,2.153c-0.054,0.823-0.255,1.654-0.604,2.491
			c-0.35,0.837-0.895,1.639-1.634,2.402c-0.741,0.765-1.75,1.393-3.027,1.885c0.515,0.774,1.066,1.593,1.653,2.456
			c0.588,0.862,1.175,1.725,1.762,2.587c0.587,0.862,1.163,1.715,1.727,2.555c0.563,0.842,1.09,1.639,1.582,2.391l-5.804,0.269
			l-5.18-7.699l0.366,7.921L90.914,154.607z M100.015,136.085c-0.087-0.886-0.53-1.584-1.328-2.094
			c-0.799-0.511-2.052-0.716-3.758-0.613l0.289,6.247c0.683-0.031,1.321-0.157,1.915-0.379c0.594-0.221,1.112-0.496,1.554-0.824
			c0.44-0.328,0.783-0.698,1.026-1.108C99.955,136.904,100.056,136.494,100.015,136.085z"/>
		<path fill="#231F20" d="M110.216,127.573l16.799-0.776l0.238,5.157l-5.771,0.267l0.967,20.93l-5.156,0.238l-0.966-20.93
			l-5.872,0.271L110.216,127.573z"/>
		<path fill="#231F20" d="M133.831,152.624l-1.205-26.086l5.156-0.238l0.499,10.791l7.17-0.331l-0.499-10.791l5.155-0.237
			l1.205,26.085l-5.154,0.238l-0.468-10.106l-7.171,0.331l0.468,10.106L133.831,152.624z"/>
		<path fill="#231F20" d="M173.508,137.926c0.164,2.57-0.045,4.701-0.629,6.393c-0.584,1.693-1.467,3.057-2.651,4.092
			c-1.184,1.036-2.626,1.781-4.327,2.235c-1.702,0.456-3.588,0.73-5.659,0.826c-0.159,0.008-0.359,0.011-0.599,0.011
			c-0.239-0.001-0.483,0-0.735,0c-0.251,0-0.495,0.001-0.735,0c-0.24,0-0.451,0.004-0.634,0.012l-1.125-25.884
			c0.676-0.146,1.293-0.242,1.852-0.291c0.556-0.048,1.073-0.084,1.551-0.105c2.458-0.113,4.535,0.167,6.231,0.842
			c1.696,0.674,3.079,1.608,4.151,2.802c1.068,1.194,1.863,2.578,2.38,4.15C173.096,134.58,173.407,136.22,173.508,137.926z
			 M168.142,138.79c-0.028-1.116-0.187-2.182-0.473-3.195c-0.287-1.013-0.704-1.9-1.252-2.662c-0.549-0.762-1.227-1.363-2.034-1.805
			c-0.808-0.442-1.735-0.661-2.784-0.658l0.75,15.499c0.818-0.038,1.593-0.193,2.322-0.467c0.728-0.273,1.354-0.695,1.875-1.267
			c0.521-0.572,0.926-1.303,1.216-2.194C168.051,141.15,168.178,140.066,168.142,138.79z"/>
		<path fill="#231F20" d="M191.268,143.299l-6.078,0.28c-0.27,1.085-0.57,2.222-0.903,3.412c-0.332,1.19-0.634,2.305-0.906,3.344
			l-5.224,0.241l7.126-26.471l4.063-0.188l9.535,25.701l-5.189,0.24L191.268,143.299z M186.566,138.554
			c0.456-0.021,0.894-0.046,1.314-0.077c0.42-0.03,0.926-0.06,1.519-0.087l-1.644-4.475L186.566,138.554z"/>
		<path fill="#231F20" d="M211.353,137.307l0.541,11.712l-5.395,0.249l-0.548-11.848c-0.505-1.071-1.024-2.199-1.56-3.384
			c-0.532-1.185-1.078-2.368-1.635-3.552c-0.556-1.184-1.101-2.368-1.636-3.552c-0.532-1.184-1.042-2.312-1.524-3.385l5.565-0.258
			l3.218,7.449l2.484-7.711l5.6-0.259L211.353,137.307z"/>
	</g>
</g>
</svg>
